<svg width="169" height="40" viewBox="0 0 169 40" fill="none" xmlns="http://www.w3.org/2000/svg">
<circle cx="20" cy="20" r="20" fill="#FDFDFD"/>
<g clip-path="url(#clip0_1436_12980)">
<path d="M17.6311 6.01705C17.6577 5.97486 17.7008 6.01911 17.7189 6.04448C17.7793 6.11498 17.8068 6.20554 17.8285 6.29404C17.8897 6.52649 17.8902 6.76868 17.8902 7.00733C17.8918 7.02271 17.8902 7.03826 17.8856 7.053C17.881 7.06775 17.8734 7.08138 17.8633 7.09305C17.8532 7.10472 17.8409 7.11418 17.827 7.12085C17.8132 7.12752 17.7981 7.13125 17.7828 7.13181C17.5485 7.16338 17.3084 7.13771 17.0721 7.16603C17.1383 7.28403 17.2185 7.39347 17.2601 7.52356C17.179 7.53035 17.1049 7.49406 17.0314 7.46456C16.8225 7.38173 16.6259 7.27026 16.4472 7.13329C16.398 7.09288 16.3433 7.04715 16.3318 6.98048C16.3398 6.90733 16.4138 6.87429 16.4736 6.85157C16.74 6.75983 17.025 6.75688 17.3025 6.72915C17.3693 6.72561 17.4469 6.69965 17.463 6.62561C17.5298 6.42649 17.552 6.21321 17.6311 6.01705Z" fill-opacity="0.4"/>
<path d="M18.4111 6.7528C18.534 6.65144 18.678 6.57918 18.8324 6.54135C18.9867 6.50352 19.1476 6.50108 19.303 6.53421C19.693 6.61887 20.021 6.89144 20.2435 7.21682C20.4582 7.56579 20.563 7.97229 20.6186 8.37583C20.6772 8.88174 20.6854 9.4083 20.5255 9.89769C20.4377 10.2626 20.2954 10.6101 20.1513 10.9558C20.1636 10.7611 20.1773 10.5663 20.1923 10.3714C20.2031 9.74223 20.1858 9.10741 20.0752 8.48616C19.9844 8.01123 19.8213 7.50886 19.4386 7.19027C19.0977 6.89026 18.5352 6.88908 18.1991 7.19705C18.1818 7.02242 18.2822 6.86076 18.4111 6.7528Z" fill="#167062"/>
<path d="M18.3552 7.3464C18.4635 7.32516 18.585 7.32575 18.6805 7.38917C18.8064 7.47177 18.8726 7.61661 18.9182 7.75555C18.9833 7.96205 19.0161 8.17739 19.0468 8.39155C19.0904 8.73669 19.1408 9.08095 19.1891 9.42579C19.1956 9.48951 19.2108 9.55441 19.2017 9.61901C19.1967 9.62556 19.1903 9.63086 19.1829 9.63451C19.1755 9.63816 19.1674 9.64006 19.1592 9.64006C19.151 9.64006 19.1429 9.63816 19.1356 9.63451C19.1282 9.63086 19.1218 9.62556 19.1168 9.61901C18.7771 9.3429 18.4374 9.06679 18.0869 8.80454C17.9306 8.68212 17.7678 8.56324 17.6421 8.40719C17.6022 8.3587 17.5746 8.30108 17.5618 8.23937C17.5491 8.17766 17.5515 8.11374 17.5689 8.0532C17.6275 7.85113 17.7519 7.67443 17.9022 7.53166C18.0412 7.44352 18.1945 7.38081 18.3552 7.3464Z" fill="#167062"/>
<path d="M23.4107 7.42527C23.4497 7.37866 23.4857 7.30433 23.5571 7.30993C23.6016 7.34149 23.606 7.39843 23.6157 7.44828C23.6482 7.68988 23.652 7.9362 23.7053 8.17455C23.7161 8.24623 23.7993 8.23532 23.8517 8.24594C24.0795 8.26835 24.3038 8.31703 24.5313 8.34446C24.6058 8.3525 24.6793 8.36761 24.751 8.3896C24.7876 8.39697 24.8221 8.45538 24.7755 8.47662C24.7359 8.4984 24.6934 8.51439 24.6493 8.52411C24.3331 8.60612 24.0201 8.70111 23.7079 8.79786C23.6593 8.81025 23.6092 8.83179 23.5592 8.81763C23.5211 8.79167 23.5114 8.74535 23.5032 8.70347C23.4505 8.43797 23.4704 8.16865 23.442 7.90227C23.3463 8.08369 23.2324 8.25449 23.124 8.42853C23.0992 8.46652 23.0686 8.50028 23.0333 8.52854C23.0145 8.5084 23.001 8.48391 22.994 8.45725C22.9869 8.43059 22.9866 8.40258 22.9929 8.37573C23.0415 8.02735 23.2139 7.71082 23.4107 7.42527Z" fill="#167062"/>
<path d="M16.397 8.35609C16.6312 8.0316 16.9891 7.82511 17.3571 7.68911C17.4046 7.66375 17.4263 7.72068 17.4356 7.75608C17.1929 7.97201 16.9999 8.26228 16.9545 8.5912C16.896 8.96996 17.045 9.35021 17.267 9.6508C17.5217 9.99712 17.8684 10.2635 18.2368 10.4768C18.7592 10.775 19.3349 10.9715 19.9223 11.0901C19.7177 11.107 19.5125 11.1132 19.3073 11.1086C18.8829 11.0703 18.4648 10.9797 18.0623 10.839C17.5937 10.6721 17.1402 10.437 16.7674 10.1015C16.5094 9.86556 16.2881 9.56643 16.2137 9.21658C16.1823 9.06823 16.1824 8.91489 16.214 8.76659C16.2456 8.6183 16.308 8.4784 16.397 8.35609Z" fill="#167062"/>
<path d="M21.7227 8.36622C21.9888 8.22315 22.3194 8.25383 22.5815 8.39189C22.7181 8.45215 22.8375 8.54597 22.9288 8.66475C22.7191 8.59425 22.4957 8.49041 22.2717 8.55974C21.9203 8.64823 21.7013 8.98423 21.5877 9.31049C21.402 9.85622 21.3886 10.4444 21.4222 11.0152C21.4416 11.3781 21.5031 11.7362 21.5482 12.0961L21.5007 12.1052C21.258 11.6613 21.1148 11.166 21.0404 10.666C20.9681 10.1409 20.9748 9.59073 21.1558 9.08718C21.2624 8.79632 21.4424 8.51254 21.7227 8.36622Z" fill="#167062"/>
<path d="M25.2577 9.33529C25.287 9.08956 25.4703 8.8633 25.7183 8.81964C26.0647 8.74531 26.4167 9.02614 26.4635 9.37157C26.4928 9.52615 26.4489 9.68161 26.3789 9.81848C26.383 9.69314 26.3507 9.56931 26.286 9.46216C26.2213 9.35502 26.127 9.2692 26.0146 9.21523C25.8914 9.15474 25.7528 9.13381 25.6174 9.15529C25.482 9.17676 25.3565 9.23959 25.2577 9.33529Z" fill="#167062"/>
<path d="M23.3954 9.08863C23.5164 8.93111 23.7175 8.88214 23.9044 8.86621C24.2651 8.82934 24.627 8.97329 24.8973 9.20958C25.2194 9.51224 25.3225 10.004 25.2136 10.4258C25.1415 10.7105 24.9705 10.9568 24.7655 11.1633C24.4121 11.5111 23.9805 11.7692 23.526 11.9598C22.9635 12.1958 22.3688 12.3433 21.7691 12.4359C21.652 12.4503 21.5375 12.4778 21.4198 12.4683C21.7826 12.2881 22.1261 12.0725 22.481 11.8784C22.9925 11.5958 23.5143 11.3229 23.9726 10.9553C24.1828 10.781 24.3948 10.5836 24.4874 10.3179C24.5843 10.0636 24.5559 9.75738 24.3846 9.54174C24.2149 9.3242 23.9805 9.16716 23.7158 9.09365C23.6098 9.06002 23.5006 9.07359 23.3954 9.08863Z" fill="#167062"/>
<path d="M14.9654 8.90843C15.1335 8.84192 15.3227 8.92794 15.4175 9.07485C15.1517 8.93444 14.7976 9.11003 14.7332 9.40238C14.6612 9.20728 14.7687 8.97287 14.9654 8.90843Z" fill="#167062"/>
<path d="M27.7245 9.69499C27.7727 9.50501 27.9006 9.35014 28.0312 9.21002C27.9572 9.5764 27.8845 9.94396 27.7847 10.3041C27.7228 10.1092 27.6723 9.89823 27.7245 9.69499Z" fill="#167062"/>
<path d="M15.3344 9.64728C15.3683 9.43311 15.5537 9.23931 15.7736 9.23429C15.879 9.22957 15.9786 9.27411 16.0644 9.33016C15.8477 9.32161 15.614 9.43459 15.5405 9.65052C15.4412 9.90185 15.6354 10.2169 15.9065 10.2266C16.0928 10.239 16.24 10.1007 16.3496 9.96557C16.3262 10.0357 16.2891 10.1005 16.2404 10.156C16.1918 10.2114 16.1326 10.2565 16.0664 10.2886C15.9726 10.3315 15.8682 10.3451 15.7666 10.3275C15.665 10.31 15.5711 10.2621 15.4969 10.1901C15.3537 10.0547 15.3045 9.83961 15.3344 9.64728Z" fill="#167062"/>
<path d="M22.9875 9.26165C23.1605 9.19115 23.3432 9.28378 23.4768 9.39352C23.5971 9.49558 23.7245 9.60473 23.786 9.75488C23.8261 9.88526 23.709 9.98468 23.6226 10.0614C23.3535 10.2862 23.0703 10.4932 22.7954 10.7104C22.564 10.8873 22.3008 11.0186 22.0826 11.2142C22.138 10.9798 22.2077 10.749 22.2914 10.5233C22.4004 10.2336 22.4984 9.93836 22.6346 9.6596C22.7151 9.50119 22.8197 9.3357 22.9875 9.26165Z" fill="#167062"/>
<path d="M14.9618 9.31949C15.0229 9.23642 15.1699 9.26687 15.2236 9.35378C15.2276 9.35999 15.2292 9.36751 15.228 9.37486C15.2269 9.3822 15.223 9.38882 15.2171 9.39339C15.154 9.44364 15.051 9.40048 14.9745 9.3659C14.9703 9.36403 14.9666 9.36125 14.9636 9.35776C14.9606 9.35427 14.9584 9.35016 14.9572 9.34571C14.956 9.34127 14.9558 9.33661 14.9566 9.33207C14.9574 9.32754 14.9592 9.32324 14.9618 9.31949Z" fill="#167062"/>
<path d="M25.5433 9.54739C25.5683 9.51458 25.6146 9.54443 25.6475 9.54976C25.7353 9.58229 25.8132 9.63754 25.8731 9.70997C25.889 9.76909 25.8306 9.81668 25.7957 9.85777C25.7607 9.89886 25.7103 9.8492 25.6842 9.82082C25.6205 9.74367 25.5545 9.66238 25.5275 9.56424L25.5433 9.54739Z" fill="#167062"/>
<path d="M14.2932 9.8168C14.4142 9.63057 14.656 9.54514 14.8683 9.59569C15.0625 9.63648 15.2358 9.79285 15.2713 9.99416C15.2967 10.1083 15.2648 10.2244 15.2142 10.3267C15.1735 10.0902 14.9998 9.86971 14.7582 9.82773C14.536 9.7831 14.312 9.91819 14.2107 10.1156C14.2065 10.0098 14.2354 9.90522 14.2932 9.8168Z" fill="#167062"/>
<path d="M28.4033 9.75965C28.5269 9.68131 28.6727 9.65234 28.8098 9.60712C28.7316 9.75226 28.6367 9.90006 28.4894 9.98194C28.3685 10.0505 28.2276 10.0617 28.0959 10.0972C28.1951 9.98282 28.28 9.85099 28.4033 9.75965Z" fill="#167062"/>
<path d="M15.9424 9.75975C15.9557 9.76547 15.9669 9.77511 15.9747 9.7874C15.9824 9.79969 15.9863 9.81406 15.9858 9.82862C15.9853 9.84318 15.9804 9.85724 15.9718 9.86895C15.9632 9.88066 15.9513 9.88948 15.9377 9.89425H15.9359C15.9185 9.9005 15.8993 9.89954 15.8825 9.89158C15.8319 9.86632 15.7881 9.8291 15.7549 9.7831C15.7527 9.78009 15.7513 9.77656 15.7509 9.77286C15.7505 9.76915 15.7511 9.76541 15.7526 9.762C15.7541 9.75859 15.7564 9.75563 15.7594 9.75342C15.7624 9.75121 15.7659 9.74982 15.7695 9.7494C15.8165 9.74615 15.8989 9.74142 15.9424 9.75975Z" fill="#167062"/>
<path d="M26.1382 10.0644C26.3335 9.80161 26.7072 9.7025 27.0088 9.82374C27.3262 9.93967 27.5651 10.2695 27.5359 10.6155C27.5265 10.8792 27.3555 11.117 27.1209 11.2285C27.2143 11.0592 27.2609 10.858 27.219 10.6662C27.1821 10.4771 27.0527 10.3004 26.8676 10.2352C26.6735 10.1618 26.4492 10.2252 26.2972 10.3603C26.1719 10.4656 26.0922 10.6149 26.0463 10.7704C25.9989 10.6549 25.9824 10.5289 25.9986 10.405C26.0147 10.2811 26.0629 10.1637 26.1382 10.0644Z" fill="#167062"/>
<path d="M14.6632 10.0916C14.6993 10.0851 14.7536 10.0564 14.7747 10.1049C14.7252 10.2128 14.5726 10.2704 14.4752 10.2116C14.4986 10.1297 14.5922 10.1102 14.6632 10.0916Z" fill="#167062"/>
<path d="M13.7232 10.0928C13.9203 10.1067 14.1191 10.203 14.2295 10.3724C14.3083 10.4948 14.3004 10.6518 14.2547 10.7848C14.0667 10.5622 13.9261 10.3029 13.7232 10.0928Z" fill="#167062"/>
<path d="M25.6453 10.2211C25.7611 10.3059 25.8474 10.4254 25.8919 10.5624C25.9824 10.8338 25.8863 11.1595 25.6515 11.325C25.4032 11.5135 25.0251 11.4964 24.7988 11.2801C24.7923 11.2672 24.7786 11.2421 24.7719 11.2294C24.9877 11.2722 25.2225 11.2356 25.4029 11.1046C25.6752 10.9147 25.7674 10.525 25.6453 10.2211Z" fill="#167062"/>
<path d="M13.042 10.4811C13.2309 10.2886 13.5764 10.2582 13.7788 10.4444C13.8375 10.5052 13.8862 10.5751 13.9231 10.6513C13.6326 10.5795 13.3433 10.4888 13.042 10.4811Z" fill="#167062"/>
<path d="M14.7725 10.334C14.8208 10.2924 14.885 10.3376 14.899 10.3901C15.0255 10.7349 15.0551 11.1046 15.1277 11.4624C15.1359 11.5093 15.1459 11.5556 15.1552 11.6022C15.1578 11.6123 15.1565 11.6229 15.1517 11.6321C15.147 11.6412 15.139 11.6483 15.1294 11.652C15.1197 11.6556 15.1091 11.6556 15.0995 11.6518C15.0899 11.6481 15.082 11.6409 15.0774 11.6317C15.0249 11.5326 14.9831 11.427 14.933 11.3273C14.9266 11.4261 14.9438 11.532 14.9037 11.6249C14.834 11.7025 14.7465 11.5913 14.6838 11.5577C14.7172 11.6978 14.7555 11.8406 14.7506 11.986C14.7468 12.0618 14.6651 12.0898 14.6018 12.094C14.3766 12.1196 14.1541 12.1659 13.9283 12.1795C13.9155 12.1803 13.9028 12.1772 13.8917 12.1707C13.8806 12.1641 13.8718 12.1544 13.8662 12.1427C13.8607 12.1311 13.8587 12.118 13.8606 12.1052C13.8625 12.0924 13.8681 12.0805 13.8768 12.0709C14.0088 11.9148 14.1598 11.7761 14.3263 11.658C14.3556 11.6355 14.3998 11.6078 14.3796 11.5641C14.3263 11.4007 14.2018 11.2674 14.167 11.0975C14.1677 11.085 14.1718 11.0729 14.1789 11.0627C14.186 11.0524 14.1957 11.0443 14.2071 11.0393C14.2185 11.0342 14.231 11.0325 14.2433 11.0341C14.2556 11.0358 14.2672 11.0409 14.2768 11.0488C14.4188 11.132 14.5494 11.2332 14.6888 11.3208C14.6856 11.0571 14.6639 10.7898 14.704 10.5293C14.7178 10.4624 14.7245 10.3863 14.7725 10.334Z" fill="#167062"/>
<path d="M27.8673 10.5335C27.9602 10.475 28.0661 10.4407 28.1753 10.4335C28.2846 10.4264 28.394 10.4466 28.4936 10.4924C28.5815 10.5311 28.6515 10.5964 28.7252 10.6555C28.3768 10.4986 27.9563 10.5645 27.6576 10.7986C27.6758 10.6792 27.7709 10.5943 27.8673 10.5335Z" fill="#167062"/>
<path d="M25.3779 10.4837C25.4744 10.4349 25.4858 10.6046 25.487 10.6687C25.4377 10.7642 25.3435 10.8257 25.2622 10.8913C25.1898 10.8863 25.2294 10.8195 25.2423 10.7775C25.2845 10.6802 25.3083 10.5685 25.3779 10.4837Z" fill="#167062"/>
<path d="M12.2376 10.6356C12.4042 10.4766 12.6739 10.4692 12.8674 10.5813C13.0036 10.6568 13.0791 10.8005 13.1242 10.9447C13.3538 10.8689 13.6144 10.9468 13.7884 11.1087C13.9084 11.2232 13.981 11.4117 13.9131 11.5721C13.8609 11.6732 13.7912 11.7642 13.7072 11.8406C13.7482 11.7338 13.7787 11.6167 13.748 11.5028C13.7046 11.2875 13.5032 11.1249 13.2876 11.1137C13.186 11.1031 13.0903 11.1432 12.9931 11.1639C12.9424 11.1217 12.9395 11.0488 12.9108 10.9931C12.8595 10.8633 12.7351 10.7901 12.6221 10.722C12.509 10.6538 12.3699 10.6347 12.2376 10.6356Z" fill="#167062"/>
<path d="M15.6416 10.6708C15.8334 10.5027 16.1083 10.462 16.3508 10.521C16.7045 10.6045 17.0088 10.8281 17.2618 11.0835C17.6389 11.467 17.9118 11.9476 18.0855 12.457C18.2398 12.9187 18.3165 13.4266 18.1885 13.9042C18.0869 13.3564 17.93 12.8128 17.6615 12.3234C17.467 11.9694 17.2222 11.6384 16.9048 11.388C16.6594 11.1956 16.3593 11.0532 16.043 11.0555C15.7561 11.0593 15.4867 11.2068 15.2955 11.4163C15.3315 11.1416 15.4243 10.8549 15.6416 10.6708Z" fill="#167062"/>
<path d="M26.6133 10.5174C26.6867 10.4728 26.8369 10.5644 26.7718 10.6478C26.6838 10.68 26.5864 10.6774 26.4939 10.6759C26.4414 10.685 26.4402 10.6135 26.4699 10.5887C26.514 10.5581 26.5624 10.5341 26.6133 10.5174Z" fill="#167062"/>
<path d="M11.5632 10.9262C11.7723 10.8392 11.9998 10.9242 12.1919 11.0147C11.9732 10.9932 11.7416 11.0498 11.584 11.2118C11.4274 11.3528 11.3717 11.5767 11.411 11.7811C11.2294 11.805 11.0394 11.879 10.9372 12.0407C10.8183 12.2121 10.8183 12.4369 10.881 12.6307C10.7943 12.595 10.7187 12.5365 10.662 12.4614C10.6054 12.3863 10.5698 12.2972 10.5589 12.2035C10.5465 12.1141 10.5591 12.023 10.5953 11.9405C10.6315 11.8579 10.6899 11.7872 10.7638 11.7363C10.8704 11.656 11.0037 11.6307 11.131 11.6041C11.119 11.3168 11.2944 11.0292 11.5632 10.9262Z" fill="#167062"/>
<path d="M28.0465 10.9557C28.2494 10.8697 28.5253 10.9176 28.6415 11.1207C28.6866 11.2089 28.7124 11.3059 28.7171 11.405C28.7219 11.5041 28.7055 11.6031 28.669 11.6953C28.6228 11.4589 28.4781 11.2298 28.2521 11.1358C28.0922 11.0675 27.9054 11.1035 27.7663 11.2023C27.8354 11.0956 27.9235 10.9965 28.0465 10.9557Z" fill="#167062"/>
<path d="M28.9613 10.9262C29.0767 10.9003 29.1663 10.9941 29.2249 11.0799C29.2552 11.1272 29.2757 11.1801 29.2853 11.2356C29.2948 11.291 29.2932 11.3478 29.2805 11.4026C29.5476 11.4584 29.6943 11.795 29.5613 12.0333C29.479 12.169 29.3323 12.2755 29.1725 12.2891C29.2263 12.1835 29.3189 12.1017 29.3578 11.9876C29.4076 11.8425 29.3619 11.6631 29.2337 11.5746C29.1839 11.5336 29.1165 11.5312 29.0603 11.5059C29.0603 11.4068 29.0916 11.3088 29.0764 11.2109C29.0662 11.1056 29.0129 11.0147 28.9613 10.9262Z" fill="#167062"/>
<path d="M17.7527 10.9893C17.9542 11.0707 18.1457 11.1748 18.3472 11.2547C18.5732 11.353 18.8248 11.4099 19.013 11.5792C19.1767 11.7226 19.3308 11.9261 19.3103 12.1568C18.9378 12.1096 18.6163 11.8834 18.3557 11.6229C18.151 11.4161 17.9322 11.2211 17.7527 10.9893Z" fill="#167062"/>
<path d="M25.936 11.2581C25.9277 11.2498 25.9224 11.2389 25.9209 11.2271C25.9195 11.2154 25.9219 11.2035 25.9279 11.1934C25.9339 11.1832 25.943 11.1753 25.9539 11.171C25.9648 11.1667 25.9769 11.1661 25.9881 11.1695C26.1535 11.199 26.2906 11.306 26.4446 11.3663C26.6259 11.3465 26.7767 11.2129 26.9532 11.17C27.0118 11.1588 27.0103 11.2377 26.9825 11.2685C26.9199 11.3465 26.8472 11.4163 26.791 11.4996C26.8537 11.5191 26.9275 11.5197 26.9825 11.5588C27.0253 11.596 26.957 11.6253 26.9278 11.6276C26.7986 11.6445 26.6797 11.6989 26.5544 11.7305C26.5652 11.6542 26.6715 11.5531 26.6033 11.4887C26.5002 11.5011 26.4054 11.5455 26.3061 11.5718C26.2499 11.5673 26.2136 11.5194 26.1737 11.4857C26.0961 11.4083 26.006 11.3421 25.936 11.2581Z" fill="#167062"/>
<path d="M19.6721 11.6932C19.7181 11.5553 19.8079 11.4364 19.9275 11.355C20.0472 11.2735 20.1902 11.2339 20.3344 11.2423C20.4786 11.2507 20.616 11.3067 20.7256 11.4015C20.8351 11.4964 20.9106 11.6249 20.9406 11.7673C20.9991 12.0186 20.8908 12.2882 20.6905 12.4457C20.6814 12.4257 20.6726 12.4059 20.6644 12.3867C20.696 12.3265 20.7148 12.2604 20.7199 12.1925C20.7249 12.1246 20.716 12.0563 20.6937 11.992C20.5895 11.6997 20.1666 11.5791 19.9362 11.7941C19.7734 11.9242 19.7333 12.1578 19.8027 12.3487C19.7259 12.2605 19.6735 12.1535 19.6506 12.0385C19.6277 11.9235 19.6351 11.8044 19.6721 11.6932Z" fill="#167062"/>
<path d="M12.3512 11.3335C12.4572 11.3535 12.5551 11.404 12.6331 11.479C12.7111 11.554 12.7658 11.6502 12.7905 11.7559C12.9108 11.6173 13.1237 11.6043 13.2748 11.6969C13.1468 11.7264 13.0142 11.8011 12.972 11.9347C12.9158 12.0845 13.013 12.2689 13.1706 12.2996C13.3053 12.3341 13.4341 12.2524 13.5178 12.1521C13.4921 12.2928 13.4116 12.4359 13.2684 12.4807C13.0256 12.563 12.7577 12.3769 12.7018 12.1347C12.632 12.2199 12.537 12.2803 12.4306 12.3072C12.3243 12.334 12.2122 12.3257 12.1108 12.2837C12.0093 12.2418 11.9232 12.169 11.8647 12.0754C11.8061 11.9819 11.7781 11.8722 11.7843 11.7618C11.8567 11.9011 11.963 12.0391 12.122 12.0786C12.2107 12.1011 12.3046 12.0879 12.3838 12.0418C12.463 11.9956 12.5211 11.9201 12.546 11.8314C12.604 11.6441 12.5067 11.4406 12.3512 11.3335Z" fill="#167062"/>
<path d="M25.3506 11.6415C25.6434 11.5368 25.9679 11.5911 26.2455 11.7164C25.967 11.7459 25.6815 11.8678 25.5184 12.1058C25.3696 12.3215 25.3491 12.5973 25.3772 12.851C25.4267 13.2976 25.6288 13.7082 25.8522 14.0899C25.4475 13.8576 25.1301 13.4973 24.9491 13.0648C24.8291 12.7752 24.7735 12.4412 24.8742 12.1371C24.9107 12.0233 24.9726 11.9194 25.0552 11.8335C25.1378 11.7476 25.2388 11.6819 25.3506 11.6415Z" fill="#167062"/>
<path d="M17.8699 11.6483C18.1748 11.7615 18.4468 11.9495 18.6995 12.1508C18.484 12.1192 18.2588 12.0672 18.0904 11.9185C18.0053 11.8388 17.9311 11.7479 17.8699 11.6483Z" fill="#167062"/>
<path d="M26.7011 11.749C26.967 11.6945 27.2721 11.7281 27.4832 11.9134C27.6554 12.0635 27.716 12.3086 27.6859 12.5302C27.6408 12.8718 27.4566 13.1792 27.2314 13.4305C26.9067 13.7874 26.4862 14.0644 26.0194 14.1889C26.3239 13.9653 26.6223 13.7243 26.8513 13.4193C27.0472 13.1609 27.2109 12.8588 27.227 12.5266C27.2411 12.2906 27.1515 12.0426 26.9684 11.8898C26.8908 11.8231 26.7945 11.7856 26.7011 11.749Z" fill="#167062"/>
<path d="M28.6285 12.1409C28.7933 12.0956 28.9172 11.9665 28.9986 11.8201C28.9965 12.0288 28.885 12.247 28.6873 12.328C28.5547 12.3856 28.4091 12.3495 28.2774 12.3123C28.2387 12.4305 28.1479 12.5441 28.02 12.5668C27.9236 12.5919 27.8299 12.5535 27.7406 12.5222C27.9491 12.4908 28.092 12.2943 28.1242 12.0944C28.2803 12.1678 28.4616 12.1994 28.6285 12.1409Z" fill="#167062"/>
<path d="M14.5464 12.3071C14.744 12.1419 14.9888 12.0466 15.2392 11.9997C15.079 12.1501 14.9244 12.3118 14.8202 12.5083C14.7288 12.69 14.6222 12.8794 14.6386 13.0909C14.6465 13.3776 14.8436 13.6186 15.0714 13.7708C15.4676 14.0378 15.9522 14.1248 16.4198 14.1499C16.9323 14.1811 17.4447 14.1133 17.9481 14.0286C17.9683 14.1106 17.8675 14.1413 17.8175 14.1826C17.385 14.4337 16.884 14.5449 16.3897 14.5797C15.8119 14.6222 15.2122 14.5207 14.7098 14.2216C14.4808 14.082 14.2705 13.8971 14.1443 13.6546C14.0756 13.523 14.0378 13.3772 14.0336 13.2286C14.0295 13.0799 14.0593 12.9323 14.1206 12.7971C14.2143 12.5976 14.3777 12.4428 14.5464 12.3071Z" fill="#167062"/>
<path d="M15.32 12.1486C15.433 12.0419 15.5979 11.964 15.7545 12.0109C15.8933 12.0522 16.0128 12.1395 16.127 12.2265C16.3668 12.4144 16.5841 12.6289 16.8022 12.8413C16.8798 12.9206 16.9688 12.9926 17.0189 13.0947C16.982 13.1882 16.8725 13.1726 16.7917 13.169C16.5035 13.1475 16.2198 13.0914 15.9328 13.0596C15.7756 13.0389 15.5958 13.0301 15.4807 12.9053C15.3689 12.7757 15.2926 12.6191 15.2594 12.4507C15.2391 12.3487 15.238 12.2242 15.32 12.1486Z" fill="#167062"/>
<path d="M26.0681 12.0932C26.2232 12.0013 26.4067 11.9707 26.5829 12.0073C26.6415 12.0176 26.7111 12.0501 26.7161 12.1194C26.7234 12.2268 26.6801 12.3297 26.6347 12.4244C26.5425 12.6056 26.4262 12.7728 26.3316 12.9528C26.264 13.0643 26.2145 13.195 26.103 13.2725C25.9668 12.982 25.9273 12.6551 25.9381 12.3365C25.9373 12.2881 25.9488 12.2404 25.9716 12.1978C25.9944 12.1552 26.0276 12.1191 26.0681 12.0932Z" fill="#167062"/>
<path d="M11.3363 12.1616C11.3987 12.2748 11.4804 12.3889 11.6069 12.4333C11.6783 12.4628 11.7565 12.4484 11.8291 12.4303C11.8476 12.508 11.8899 12.5779 11.95 12.63C12.0101 12.682 12.0849 12.7136 12.1638 12.7203C12.2145 12.7298 12.2628 12.7023 12.3134 12.7088C12.1893 12.817 11.9931 12.8613 11.849 12.7679C11.8142 12.7449 11.7848 12.7144 11.763 12.6787C11.7412 12.6429 11.7275 12.6027 11.7228 12.561C11.5916 12.5722 11.4335 12.5379 11.3679 12.4099C11.319 12.3366 11.3328 12.2447 11.3363 12.1616Z" fill="#167062"/>
<path d="M23.3811 12.4324C23.5483 12.2377 23.8162 12.1613 24.0649 12.1802C24.1477 12.1897 24.2461 12.1781 24.3061 12.2487C24.1235 12.3119 23.9545 12.4097 23.8083 12.5369C23.6496 12.6776 23.5978 12.9139 23.652 13.1156C23.7343 13.4543 23.9814 13.7268 24.2654 13.9121C24.4411 14.028 24.6341 14.1115 24.8259 14.1956C24.4903 14.2584 24.1433 14.151 23.8634 13.9643C23.5706 13.7687 23.3319 13.4776 23.242 13.1324C23.1797 12.8953 23.2142 12.62 23.3811 12.4324Z" fill="#167062"/>
<path d="M18.3883 12.339C18.3789 12.2711 18.4647 12.3044 18.5007 12.3036C19.0246 12.3744 19.5549 12.3747 20.0819 12.3735C20.2907 12.3682 20.4919 12.4505 20.6989 12.4381L20.5888 12.4758C20.6078 12.4758 20.6474 12.4714 20.6652 12.4696C21.0459 12.6056 21.3528 12.8924 21.5938 13.2112C21.6084 13.0613 21.679 12.9225 21.7911 12.8227C21.9065 12.7198 22.0605 12.6779 22.2102 12.6596C22.1461 12.6904 22.0894 12.7348 22.0439 12.7896C21.9985 12.8445 21.9653 12.9086 21.9466 12.9776C21.8842 13.2136 22.0251 13.4871 22.2599 13.5564C22.3352 13.58 22.4158 13.5803 22.4912 13.5572C22.5666 13.5342 22.6335 13.4889 22.6831 13.4272C22.8104 13.2635 22.8219 13.0319 22.7416 12.8443C22.8915 12.9714 22.9978 13.1629 22.9826 13.3649C22.9727 13.6024 22.7937 13.8045 22.5765 13.8806C22.6282 13.9386 22.6622 14.0103 22.6745 14.0873C22.6868 14.1642 22.6769 14.2431 22.6459 14.3145C22.6017 14.1508 22.435 14.0337 22.2652 14.067C22.1244 14.0847 21.9964 14.2104 22.0058 14.3588C22.0037 14.4741 22.0743 14.5712 22.1501 14.6505C21.9364 14.6446 21.7264 14.503 21.6617 14.2945C21.4646 14.5782 21.0761 14.7157 20.749 14.5948C20.6209 14.5489 20.5102 14.4641 20.4319 14.3523C20.1513 14.7254 19.6043 14.8785 19.1833 14.665C19.0764 14.6132 18.9831 14.5367 18.9112 14.4417C18.8392 14.3467 18.7906 14.2359 18.7692 14.1183C18.7235 13.862 18.8243 13.5941 19.0035 13.4104C19.1739 13.2313 19.4087 13.1272 19.6497 13.0888C19.4828 13.1697 19.3127 13.285 19.2512 13.4702C19.2087 13.6225 19.1877 13.7947 19.2579 13.9422C19.2916 14.0144 19.3432 14.0765 19.4077 14.1227C19.4721 14.1689 19.5473 14.1976 19.626 14.206C19.872 14.2355 20.12 14.0759 20.2116 13.847C20.2781 13.6838 20.2755 13.4868 20.1824 13.3354C20.1354 13.2603 20.076 13.1939 20.0067 13.139C20.1976 13.1623 20.3636 13.285 20.4752 13.4378C20.6026 13.2729 20.807 13.1632 21.0172 13.1815C21.0916 13.1847 21.1646 13.203 21.2318 13.2353C21.2991 13.2675 21.3592 13.313 21.4087 13.3691C21.3071 13.3369 21.2037 13.3071 21.0951 13.3124C21.007 13.3159 20.9217 13.3446 20.8492 13.3952C20.7767 13.4458 20.7201 13.5163 20.686 13.5982C20.652 13.6801 20.6418 13.7702 20.6568 13.8577C20.6718 13.9453 20.7113 14.0267 20.7706 14.0924C20.8477 14.1809 20.9604 14.2248 21.0702 14.2561C21.2556 14.3004 21.4476 14.185 21.5352 14.0222C21.578 13.9469 21.6036 13.863 21.6102 13.7765C21.6168 13.69 21.6042 13.6031 21.5733 13.5222C21.6772 13.6089 21.7478 13.7295 21.773 13.8632C21.8047 13.8301 21.8386 13.7994 21.8746 13.7711C21.7251 13.6519 21.6242 13.4817 21.5908 13.2927C21.3217 13.0387 20.9759 12.882 20.6245 12.7779C20.2889 12.6814 19.9351 12.6681 19.5932 12.739C19.3999 12.7732 19.2102 12.8431 19.012 12.8348C18.8363 12.8207 18.7191 12.6732 18.5959 12.5658C18.5238 12.4938 18.4424 12.4269 18.3883 12.339Z" fill="#167062"/>
<path d="M28.8859 12.7488C28.9637 12.678 29.0126 12.5833 29.0598 12.4901C29.0782 12.6712 29.0323 12.8735 28.887 12.9945C28.8281 13.0473 28.7575 13.0851 28.681 13.1048C28.6046 13.1244 28.5246 13.1253 28.4478 13.1075C28.4071 13.1092 28.3447 13.0685 28.3222 13.1202C28.2185 13.3166 28.0094 13.4685 27.7828 13.4579C27.6598 13.4541 27.5535 13.3853 27.4586 13.3134C27.5613 13.3418 27.6693 13.3444 27.7732 13.321C27.8772 13.2975 27.9737 13.2487 28.0545 13.1789C28.1477 13.1054 28.2033 12.9983 28.2785 12.9089C28.3849 12.9374 28.4967 12.9376 28.6032 12.9095C28.7096 12.8814 28.807 12.8261 28.8859 12.7488Z" fill="#167062"/>
<path d="M9.78401 12.7657C9.903 12.6602 10.0375 12.5739 10.1828 12.5099C10.0657 12.7601 9.90875 12.9985 9.87566 13.279C9.88562 14.0333 9.88093 14.7882 9.88474 15.5427C9.88474 16.3959 9.8985 17.2493 9.8947 18.1024C9.8947 18.475 9.88825 18.8694 9.70905 19.2056C9.66688 19.2871 9.6212 19.3705 9.54331 19.4236C9.50144 19.2924 9.51608 19.1525 9.50934 19.0168C9.49558 17.123 9.50583 15.2289 9.5029 13.335C9.50115 13.1132 9.63145 12.9141 9.78401 12.7657Z" fill="#167062"/>
<path d="M24.1386 12.7915C24.2126 12.668 24.3295 12.5767 24.4666 12.5351C24.5148 12.519 24.5672 12.5219 24.6134 12.5432C24.6596 12.5645 24.6961 12.6026 24.7155 12.6499C24.7928 12.8222 24.7808 13.0174 24.7723 13.2018C24.762 13.2903 24.7723 13.3897 24.7137 13.4617C24.5287 13.3485 24.3616 13.2078 24.218 13.0446C24.1574 12.9773 24.0941 12.8835 24.1386 12.7915Z" fill="#167062"/>
<path d="M11.8977 13.1321C12.0173 13.1334 12.1351 13.1022 12.2387 13.0419C12.3424 12.9815 12.428 12.8941 12.4868 12.7889C12.6376 12.9219 12.8127 13.0443 13.0183 13.0629C13.2801 13.0972 13.5392 12.9695 13.7058 12.7694C13.6458 13.1164 13.2976 13.4067 12.943 13.3461C12.7966 13.3316 12.6771 13.2441 12.5556 13.1711C12.4581 13.3387 12.2836 13.4667 12.0871 13.4694C11.7331 13.4966 11.4089 13.2033 11.3416 12.8634C11.409 12.9467 11.4938 13.014 11.5899 13.0605C11.686 13.1069 11.7911 13.1314 11.8977 13.1321Z" fill="#167062"/>
<path d="M29.1474 13.1735C29.2217 13.0906 29.275 12.9909 29.3506 12.908C29.4566 13.1316 29.3883 13.3953 29.2739 13.6021C29.0416 14.0272 28.6103 14.3171 28.1485 14.4328C27.7386 14.5393 27.3023 14.5596 26.8874 14.4602C27.237 14.3263 27.6074 14.2522 27.9488 14.095C28.4112 13.8859 28.8159 13.5578 29.1474 13.1735Z" fill="#167062"/>
<path d="M10.3992 13.1848C10.8053 13.3748 11.1737 13.6356 11.5646 13.8536C11.8349 14.0037 12.116 14.1323 12.3886 14.2778C12.3784 14.3421 12.3102 14.35 12.2589 14.3624C12.0014 14.4079 11.7364 14.3807 11.4932 14.2839C11.0644 14.1229 10.7066 13.8134 10.4838 13.4108C10.4424 13.3412 10.4137 13.2646 10.3992 13.1848Z" fill="#167062"/>
<path d="M29.5345 14.075C29.5513 14.0078 29.5806 13.9443 29.6208 13.888C29.6738 14.1665 29.6733 14.4517 29.6946 14.7337C29.7734 16.3305 29.7924 17.9297 29.8305 19.5276C29.8399 19.8247 29.8153 20.1212 29.8261 20.4176C29.7022 20.2164 29.673 19.9751 29.634 19.7465C29.429 18.581 29.3822 17.3954 29.3476 16.2146C29.3353 15.7668 29.3342 15.3169 29.3968 14.8727C29.4358 14.6057 29.4601 14.3352 29.5345 14.075Z" fill="#167062"/>
<path d="M10.6147 14.6824C10.8238 14.5349 11.1295 14.5237 11.3368 14.6801C11.4964 14.8054 11.5321 15.0173 11.5606 15.2066C11.5849 15.3246 11.6136 15.4739 11.7362 15.5267C11.8059 15.5143 11.8449 15.4476 11.8926 15.4019C11.9936 15.2928 12.1228 15.1978 12.2733 15.1813C12.3904 15.1748 12.4958 15.2376 12.5807 15.3125C12.4595 15.3264 12.3318 15.3459 12.2349 15.427C12.08 15.5562 11.9562 15.719 11.801 15.8482C11.7632 15.8809 11.7186 15.9046 11.6705 15.9174C11.6223 15.9302 11.5719 15.9319 11.5231 15.9223C11.3913 15.8969 11.2838 15.8043 11.2144 15.691C11.1061 15.5297 11.0762 15.332 10.9934 15.16C10.9081 15.0001 10.6944 14.9777 10.5412 15.0394C10.3975 15.1041 10.2663 15.194 10.1538 15.3049C10.2363 15.0525 10.3981 14.834 10.6147 14.6824Z" fill="#167062"/>
<path d="M28.4556 14.7417C28.542 14.6764 28.6365 14.6228 28.7367 14.5822C28.5903 14.783 28.405 14.9656 28.3244 15.2075C28.1921 15.6011 28.1892 16.0211 28.178 16.4317C28.1631 17.3409 28.272 18.2459 28.3578 19.1495C28.3745 19.3796 28.3994 19.6109 28.3804 19.8412C28.3666 19.9858 28.3028 20.1525 28.1531 20.2002C28.0176 20.2504 27.8161 20.1843 27.8053 20.02C27.7581 19.6256 27.776 19.2265 27.7608 18.8297C27.7426 18.4073 27.7438 17.9843 27.7546 17.5613C27.7695 17.0669 27.7704 16.5716 27.8132 16.0786C27.8486 15.745 27.8911 15.3963 28.0697 15.1052C28.1616 14.95 28.3177 14.8521 28.4556 14.7417Z" fill="#167062"/>
<path d="M13.8172 14.802C14.3378 14.7937 14.8564 14.8549 15.3741 14.9063C15.8658 14.9498 16.3604 14.995 16.8409 15.1132C16.6983 15.2264 16.515 15.2637 16.3431 15.3036C15.7352 15.4159 15.1015 15.3444 14.5194 15.1413C14.2749 15.0532 14.0263 14.9592 13.8172 14.802Z" fill="#167062"/>
<path d="M24.4701 14.8622C24.9994 14.8028 25.5332 14.794 26.0642 14.8359C26.1188 14.8447 26.1728 14.8565 26.2261 14.8714C25.7526 15.0612 25.2487 15.1632 24.7447 15.2291C23.996 15.3272 23.2317 15.3571 22.4839 15.2353C22.3767 15.2252 22.2713 15.2006 22.1705 15.1623C22.269 15.1141 22.3752 15.0841 22.4841 15.0736C23.1442 14.9817 23.808 14.9291 24.4701 14.8622Z" fill="#167062"/>
<path d="M27.165 15.0071C27.3445 14.895 27.5875 14.8663 27.7752 14.9776C27.6256 15.0737 27.4584 15.1546 27.3507 15.302C27.1799 15.5141 27.1296 15.7911 27.0924 16.0543C27.0309 16.528 27.0171 17.0065 26.9999 17.4835C26.9956 17.64 26.9828 17.7962 26.9615 17.9514C26.8227 17.1729 26.7313 16.3708 26.8599 15.5841C26.8991 15.3672 26.9776 15.1366 27.165 15.0071Z" fill="#167062"/>
<path d="M18.4763 15.0466C18.9669 15.0272 19.4582 15.0355 19.948 15.0714C19.818 15.1707 19.6732 15.2484 19.519 15.3017C18.9667 15.4791 18.365 15.4356 17.8148 15.2722C17.6871 15.2373 17.5639 15.1877 17.4476 15.1244C17.7852 15.054 18.1334 15.0635 18.4763 15.0466Z" fill="#167062"/>
<path d="M13.1128 15.3166C13.2244 15.2916 13.3398 15.2903 13.4519 15.3128C13.7111 15.3718 13.9682 15.4741 14.1699 15.6529C14.5169 15.9579 14.6882 16.4143 14.7626 16.8623C14.8607 17.4765 14.8689 18.1013 14.8627 18.7208C14.8654 19.3243 14.8112 19.9302 14.875 20.5317C14.875 20.6241 14.9529 20.686 15.0276 20.7247C15.1889 20.6173 15.2285 20.4075 15.2405 20.2267C15.3558 20.3813 15.3837 20.5807 15.3907 20.7686C15.3983 21.0205 15.2384 21.276 14.9942 21.3512C14.7553 21.4527 14.4794 21.3008 14.372 21.0775C14.2296 20.7825 14.2118 20.4447 14.2147 20.1214C14.2209 19.5199 14.2487 18.9184 14.234 18.3169C14.2276 17.8951 14.213 17.473 14.1802 17.0523C14.1441 16.6544 14.0607 16.2458 13.8343 15.9092C13.7249 15.7447 13.5918 15.5974 13.4393 15.4723C13.3444 15.3942 13.2206 15.3706 13.1128 15.3166Z" fill="#167062"/>
<path d="M20.4407 15.4813C20.8355 15.4324 21.2489 15.5091 21.5892 15.7203C21.6867 15.7843 21.783 15.8592 21.8363 15.9669C21.4395 15.9415 21.039 15.8991 20.6419 15.9486C20.1781 16.0076 19.7224 16.2079 19.3989 16.5533C19.1084 16.874 18.9596 17.2985 18.8902 17.7209C18.8671 17.9006 18.8267 18.0773 18.8006 18.2569C18.7544 18.2197 18.7476 18.159 18.7362 18.1053C18.6733 17.7566 18.6873 17.3973 18.7471 17.0498C18.8097 16.6489 18.9798 16.2533 19.2776 15.974C19.5913 15.6755 20.0194 15.5324 20.4407 15.4813Z" fill="#167062"/>
<path d="M24.8646 15.6728C25.042 15.5224 25.2886 15.4896 25.5117 15.518C25.5979 15.5281 25.6813 15.5553 25.7571 15.5979C25.5744 15.6497 25.4026 15.7348 25.2502 15.8489C25.0549 16.0044 24.9311 16.2324 24.8429 16.4625C24.669 16.9233 24.6444 17.4266 24.6763 17.9142C24.6883 18.1407 24.7463 18.3617 24.7615 18.5879C24.6766 18.4994 24.6462 18.377 24.6034 18.2661C24.4298 17.7109 24.3214 17.1177 24.4227 16.5375C24.4754 16.2144 24.6028 15.882 24.8646 15.6728Z" fill="#167062"/>
<path d="M15.5138 16.2201C15.739 15.8709 16.11 15.6006 16.5284 15.5596C16.6827 15.543 16.8386 15.5642 16.983 15.6215C17.1274 15.6788 17.2558 15.7704 17.3574 15.8886C17.4912 16.0405 17.6183 16.2458 17.5471 16.4564C17.3764 16.3455 17.2116 16.2181 17.0174 16.1511C16.8133 16.0857 16.5974 16.066 16.3849 16.0933C16.1724 16.1205 15.9684 16.1941 15.787 16.3089C15.5925 16.4269 15.4491 16.6066 15.3234 16.7927C15.3106 16.5838 15.411 16.3939 15.5138 16.2201Z" fill="#167062"/>
<path d="M25.9669 15.6793C26.1944 15.815 26.2914 16.0814 26.364 16.3236C26.518 16.8672 26.5025 17.4375 26.542 17.9962C26.5578 18.1366 26.5684 18.2873 26.6474 18.4092C26.7092 18.4926 26.8246 18.4779 26.9142 18.4779C26.9002 18.5518 26.869 18.6213 26.8232 18.6806C26.7774 18.74 26.7183 18.7876 26.6507 18.8195C26.5247 18.8738 26.3795 18.8047 26.301 18.7015C26.1719 18.5313 26.1303 18.3127 26.1157 18.1033C26.0843 17.5643 26.152 17.0245 26.1101 16.4861C26.0963 16.2122 26.0482 15.9411 25.9669 15.6793Z" fill="#167062"/>
<path d="M23.1682 16.339C23.2961 16.219 23.4859 16.1293 23.6601 16.1915C23.8162 16.2656 23.9591 16.396 23.9966 16.5724C23.7568 16.5485 23.5392 16.7095 23.3963 16.8907C23.1222 17.2488 23.0695 17.7166 23.0382 18.1538C23.0127 18.4063 23.03 18.6615 23.001 18.9131C22.9424 18.881 22.9638 18.8054 22.9503 18.7518C22.8604 18.1355 22.8402 17.5034 22.9486 16.8883C22.9922 16.696 23.0341 16.4889 23.1682 16.339Z" fill="#167062"/>
<path d="M22.0808 16.4152C22.1566 16.4237 22.1979 16.4942 22.2363 16.5512C22.4222 16.8477 22.529 17.1876 22.5464 17.5379C22.571 17.9255 22.5352 18.3134 22.4913 18.6981C22.4512 19.035 22.4061 19.3783 22.462 19.7158C22.4878 19.8542 22.53 20.0058 22.6462 20.0949C22.7215 20.1435 22.8322 20.176 22.9098 20.117C23.0228 20.031 23.1107 19.9158 23.1642 19.7837C23.2228 19.8527 23.1853 19.9474 23.1713 20.0264C23.1127 20.2291 23.0213 20.4409 22.8451 20.5674C22.6688 20.694 22.4131 20.6598 22.2635 20.5084C21.9924 20.2453 21.9095 19.843 21.9291 19.476C21.9625 18.9364 22.1484 18.4223 22.2169 17.8878C22.2844 17.3929 22.2378 16.889 22.0808 16.4152Z" fill="#167062"/>
<path d="M23.9972 17.1457C24.0748 17.2342 24.0979 17.3522 24.1377 17.4599C24.2454 17.7898 24.3093 18.1326 24.3278 18.4793C24.3486 18.7498 24.3298 19.0271 24.4033 19.2912C24.4291 19.3649 24.4619 19.4605 24.5442 19.4838C24.6425 19.4752 24.7064 19.3808 24.7445 19.2979C24.8171 19.1153 24.7895 18.9145 24.7948 18.7224C24.9412 18.923 25.0048 19.177 24.998 19.4233C24.9936 19.6369 24.9011 19.8555 24.7263 19.9823C24.6409 20.0423 24.5396 20.075 24.4355 20.0762C24.3315 20.0774 24.2294 20.0471 24.1427 19.9891C23.9825 19.8897 23.8891 19.7109 23.8499 19.5304C23.7995 19.2985 23.8414 19.0605 23.8888 18.8322C23.9817 18.3867 24.0877 17.9363 24.0587 17.4776C24.0607 17.3634 24.0226 17.2554 23.9972 17.1457Z" fill="#167062"/>
<path d="M30.9452 17.1659C30.9745 17.1269 31.0152 17.1659 31.0346 17.1918C31.1675 17.3665 31.2466 17.5753 31.3567 17.7624C31.3804 17.8078 31.4331 17.783 31.4714 17.775C31.5845 17.7432 31.6802 17.6697 31.7936 17.6355C31.8442 17.6187 31.8703 17.6863 31.8489 17.724C31.8196 17.842 31.7701 17.9544 31.7447 18.0739C31.8618 18.1458 31.9921 18.1963 32.1124 18.265C32.1277 18.2713 32.1404 18.2825 32.1485 18.2969C32.1567 18.3113 32.1599 18.328 32.1575 18.3444C32.1162 18.383 32.0577 18.3739 32.0067 18.3798C31.8994 18.3875 31.7916 18.3855 31.6846 18.3739C31.6639 18.372 31.6444 18.3629 31.6296 18.3481C31.6148 18.3334 31.6056 18.3139 31.6035 18.293C31.593 18.1815 31.6035 18.0691 31.5947 17.9573C31.5183 17.9756 31.4469 18.0199 31.3684 18.0234C31.2671 17.9644 31.222 17.8464 31.1546 17.7562C31.1499 17.834 31.1476 17.9163 31.0984 17.9812C31.0337 17.7845 31.0015 17.5795 30.9602 17.3768C30.9476 17.3084 30.9262 17.2352 30.9452 17.1659Z" fill="#167062"/>
<path d="M17.837 17.3492C17.8428 17.2976 17.8226 17.2283 17.878 17.1985C17.9761 17.7454 17.9881 18.3026 18.0425 18.8546C18.087 19.331 18.1058 19.81 18.1781 20.2835C18.2042 20.4416 18.2299 20.6053 18.3099 20.7466C18.3588 20.8351 18.4674 20.9039 18.5684 20.8646C18.6501 20.8165 18.6856 20.723 18.7368 20.6466C18.7993 20.7584 18.8314 20.8848 18.8299 21.013C18.8299 21.2284 18.6864 21.4449 18.4753 21.5C18.2812 21.5487 18.0765 21.4481 17.96 21.2918C17.8742 21.1817 17.8428 21.0407 17.8223 20.9056C17.837 19.7195 17.8247 18.5339 17.837 17.3492Z" fill="#167062"/>
<path d="M8.63137 18.1205C8.70107 17.9772 8.83986 17.8347 9.01204 17.8518C9.07506 17.8597 9.13409 17.8871 9.181 17.9303C9.19797 17.9452 9.21119 17.9639 9.21959 17.9849C9.22799 18.006 9.23133 18.0287 9.22933 18.0513C9.22733 18.0739 9.22005 18.0957 9.20809 18.1149C9.19613 18.1341 9.17982 18.1502 9.1605 18.1618C9.0761 18.2133 9.00749 18.2874 8.96226 18.3757C8.85597 18.5645 8.81878 18.7813 8.81585 18.9952C8.81539 19.0072 8.81127 19.0189 8.80404 19.0285C8.79681 19.0381 8.78682 19.0453 8.77543 19.049C8.76403 19.0528 8.75178 19.0529 8.74031 19.0494C8.72885 19.0459 8.71873 19.0389 8.71131 19.0294C8.68727 18.9966 8.66583 18.962 8.64719 18.9259C8.58513 18.8013 8.5515 18.6643 8.54877 18.525C8.54603 18.3857 8.57425 18.2475 8.63137 18.1205Z" fill="#167062"/>
<path d="M30.5586 18.081C30.8628 18.0102 31.1905 18.0892 31.4438 18.2683C31.62 18.3919 31.7642 18.5563 31.8644 18.7476C31.9645 18.939 32.0177 19.1517 32.0195 19.368C32.0213 19.677 31.9033 19.9745 31.6906 20.1972C31.7513 19.7981 31.7182 19.3712 31.5349 19.0072C31.4586 18.8577 31.3513 18.7263 31.2202 18.6222C31.0892 18.5181 30.9374 18.4436 30.7753 18.4037C30.5091 18.3385 30.2049 18.3273 29.9648 18.4801C30.1072 18.2779 30.3186 18.1358 30.5586 18.081Z" fill="#167062"/>
<path d="M7.97929 19.7765C8.0522 19.5932 8.22672 19.4495 8.42437 19.4344C8.56434 19.4232 8.69582 19.4912 8.80504 19.5734C8.56288 19.5669 8.30724 19.6561 8.1541 19.8518C8.08408 19.943 8.03741 20.0502 8.01823 20.164C7.92277 20.059 7.93126 19.9024 7.97929 19.7765Z" fill="#167062"/>
<path d="M9.0271 19.7219C9.11875 19.6517 9.21568 19.5806 9.33134 19.5585C9.50264 19.5184 9.70557 19.5747 9.80308 19.7296C9.90058 19.8845 9.8836 20.0771 9.84466 20.2461C10.0511 20.2556 10.1925 20.4821 10.131 20.6753C10.1035 20.5978 10.0813 20.5119 10.0157 20.4571C9.9366 20.3851 9.8265 20.3624 9.72284 20.3686C9.75388 20.1594 9.71084 19.9187 9.53573 19.7836C9.39283 19.6644 9.19459 19.6712 9.0271 19.7219Z" fill="#167062"/>
<path d="M30.1732 19.8094C30.473 19.5906 30.9406 19.6431 31.1667 19.9454C31.2891 20.0929 31.3368 20.2994 31.4976 20.4174C31.6601 20.5398 31.8624 20.639 31.9441 20.8387C31.9835 20.9279 31.997 21.0265 31.9833 21.1232C31.9696 21.2199 31.9291 21.3107 31.8665 21.3853C31.6244 21.6859 31.304 21.9354 30.9354 22.0531C31.0557 21.8997 31.1989 21.7667 31.3131 21.6071C31.4179 21.4611 31.5726 21.3183 31.5594 21.1219C31.5471 20.9154 31.3705 20.7865 31.2279 20.6652C31.0338 20.5047 30.9541 20.2457 30.7576 20.0873C30.6185 19.9776 30.4487 19.8879 30.2677 19.8944C30.1609 19.8944 30.0853 19.9802 29.9989 20.0307C30.0459 19.9487 30.1046 19.8742 30.1732 19.8094Z" fill="#167062"/>
<path d="M9.09144 20.1526C9.28031 20.2765 9.37753 20.5284 9.28851 20.744C9.39627 20.803 9.48324 20.9098 9.4806 21.039C9.49144 21.1432 9.42848 21.2299 9.3664 21.3045C9.37167 21.1948 9.36377 21.0662 9.26802 20.9948C9.17285 20.914 9.00448 20.9573 8.97022 21.08C8.93273 21.198 9.00243 21.3104 9.07124 21.3992C9.00961 21.3914 8.95052 21.3697 8.89839 21.3357C8.84627 21.3017 8.80245 21.2562 8.77022 21.2028C8.72835 21.129 8.73508 21.0417 8.74094 20.9609C8.50229 20.8653 8.36671 20.5774 8.45719 20.3331C8.48999 20.4927 8.56114 20.6703 8.72337 20.7346C8.91019 20.806 9.12131 20.6564 9.15704 20.4673C9.18485 20.3579 9.14298 20.2479 9.09144 20.1526Z" fill="#167062"/>
<path d="M31.8138 20.1544C32.0274 20.1429 32.2403 20.1873 32.4319 20.2832C32.4583 20.3033 32.5125 20.3234 32.497 20.3675C32.5013 20.4142 32.4384 20.4133 32.4091 20.4222C32.2703 20.4343 32.1333 20.4003 31.9965 20.3832C32.0276 20.431 32.1353 20.5309 32.0349 20.5638C31.9306 20.5398 31.8375 20.4828 31.7371 20.4482C31.6882 20.4239 31.6138 20.4098 31.6103 20.3429C31.6434 20.2416 31.769 20.2445 31.856 20.2433C31.8402 20.2135 31.8267 20.1839 31.8138 20.1544Z" fill="#167062"/>
<path d="M28.3213 20.9223C28.3274 20.6353 28.6536 20.4049 28.9207 20.5138C29.0794 20.5804 29.1939 20.7203 29.2797 20.8657C29.1122 20.7447 28.8785 20.6887 28.6908 20.7958C28.6235 20.831 28.5671 20.8841 28.5275 20.9493C28.4879 21.0145 28.4667 21.0893 28.4662 21.1657C28.3227 21.1067 28.1482 21.0996 28.0185 21.1952C27.8639 21.3035 27.8162 21.5085 27.8358 21.6881C27.78 21.6408 27.7343 21.5826 27.7014 21.5171C27.6685 21.4515 27.6491 21.38 27.6443 21.3067C27.6405 21.1368 27.7673 20.9905 27.9175 20.9288C28.0457 20.8781 28.1895 20.8893 28.3213 20.9223Z" fill="#167062"/>
<path d="M7.7197 21.2359C7.54225 21.0256 7.56568 20.7023 7.73258 20.4931C7.70325 20.604 7.70558 20.7209 7.73931 20.8305C7.77303 20.9401 7.83677 21.0379 7.92321 21.1126C8.06962 21.2441 8.28338 21.2636 8.46903 21.222C8.44677 21.576 8.70328 21.9259 9.05672 21.9869C8.85789 22.0577 8.61251 22.0489 8.44941 21.9017C8.31208 21.7801 8.27079 21.5908 8.25088 21.4158C8.05879 21.4459 7.84356 21.3981 7.7197 21.2359Z" fill="#167062"/>
<path d="M29.5119 20.6379C29.595 20.6005 29.6914 20.5739 29.7792 20.6143C29.9435 20.6769 30.0252 20.848 30.0805 21.0043C30.2269 20.9852 30.3792 20.9902 30.5113 21.0601C30.7455 21.1781 30.9136 21.4403 30.8919 21.7091C30.8861 21.8515 30.8217 21.9807 30.7596 22.1055C30.7596 21.8592 30.6884 21.5946 30.4902 21.435C30.3622 21.309 30.1766 21.2666 30.0026 21.2787C29.9526 21.0037 29.786 20.7312 29.5119 20.6379Z" fill="#167062"/>
<path d="M10.3501 20.685C10.3483 20.6732 10.3503 20.661 10.356 20.6505C10.3616 20.6399 10.3705 20.6315 10.3814 20.6265C10.3922 20.6215 10.4044 20.6202 10.416 20.6228C10.4276 20.6253 10.4381 20.6317 10.4458 20.6408C10.5685 20.7432 10.6535 20.8818 10.7597 20.9998C10.789 21.0337 10.8429 21.024 10.8769 21.003C11.0286 20.924 11.1738 20.8328 11.3111 20.7305C11.2042 20.9826 11.1142 21.2417 11.0417 21.506L10.9609 21.5084C10.8683 21.4406 10.7803 21.3666 10.6974 21.2871C10.7211 21.4585 10.7609 21.6272 10.7969 21.7963C10.8015 21.814 10.8025 21.8324 10.7999 21.8505C10.7973 21.8686 10.7911 21.8859 10.7817 21.9016C10.5182 21.8824 10.2546 21.8744 9.98904 21.8556C10.0523 21.7615 10.168 21.7376 10.2699 21.7081C10.3637 21.6808 10.4606 21.6657 10.5583 21.6632C10.4318 21.3526 10.3849 21.0163 10.3501 20.685Z" fill="#167062"/>
<path d="M9.64713 21.2868C9.87436 21.3001 10.0741 21.1526 10.1842 20.9623C10.1886 21.078 10.1689 21.2042 10.0834 21.2892C10.0035 21.3777 9.88255 21.4054 9.7745 21.4429C9.77667 21.5455 9.74578 21.6461 9.68644 21.7296C9.62711 21.8131 9.54254 21.875 9.44537 21.906C9.32444 21.9455 9.19443 21.9199 9.08081 21.8697C9.36573 21.8193 9.61697 21.583 9.64713 21.2868Z" fill="#167062"/>
<path d="M11.3858 21.4389C11.6444 21.0834 12.1208 20.8887 12.5489 21.0032C12.7917 21.0666 12.9881 21.2392 13.1346 21.4392C13.3688 21.7581 13.4479 22.1578 13.5079 22.5419C13.5202 22.6357 13.5009 22.7312 13.5217 22.8248C13.4956 22.7557 13.4546 22.6944 13.4268 22.6268C13.2971 22.2628 13.0977 21.9165 12.8154 21.651C12.5694 21.4262 12.2397 21.256 11.8991 21.305C11.6625 21.3345 11.4558 21.4696 11.2915 21.6371C11.3099 21.5655 11.342 21.4982 11.3858 21.4389Z" fill="#167062"/>
<path d="M22.7346 21.3959C22.7744 21.3266 22.8102 21.2375 22.8916 21.2097C22.9744 21.1959 23.0014 21.2953 23.0251 21.3555C23.1024 21.5484 23.1159 21.7699 23.2324 21.9455C23.4438 21.9696 23.6737 21.8749 23.8722 21.9853C23.9498 22.0251 23.9346 22.1257 23.8942 22.1873C23.7735 22.3959 23.6306 22.5965 23.4485 22.7552L23.3899 22.7422C23.3718 22.5915 23.4863 22.4558 23.5129 22.3074C23.3296 22.3664 23.1615 22.4741 22.9677 22.4997C22.8904 22.513 22.8304 22.4455 22.8239 22.3732C22.8039 22.2023 22.7974 22.0301 22.8043 21.8581C22.7109 21.99 22.6039 22.1115 22.4851 22.2207C22.4175 22.2431 22.3999 22.1634 22.4266 22.1171C22.5163 21.8713 22.6191 21.6306 22.7346 21.3959Z" fill="#167062"/>
<path d="M29.1878 21.2264C29.3342 21.3061 29.4443 21.4586 29.4478 21.6303C29.4502 21.6959 29.438 21.7613 29.4121 21.8216C29.3863 21.8819 29.3475 21.9357 29.2985 21.979C29.3494 22.1164 29.4741 22.2368 29.6279 22.2312C29.8003 22.2412 29.95 22.0946 29.9766 21.9279C30.0083 21.7804 29.9535 21.6329 29.8595 21.5214C29.9655 21.5568 30.0683 21.6149 30.1301 21.7117C30.2791 21.927 30.2179 22.2465 30.0173 22.4064C29.8267 22.5731 29.5151 22.571 29.3351 22.389C29.3397 22.4707 29.3262 22.5524 29.2954 22.6282C29.2647 22.7039 29.2175 22.7718 29.1573 22.8268C29.0785 22.8969 28.9808 22.942 28.8767 22.9564C28.7725 22.9709 28.6664 22.954 28.5717 22.9079C28.3471 22.7996 28.2203 22.5197 28.2985 22.279C28.3401 22.1241 28.4604 22.0088 28.5954 21.9318C28.4932 22.0719 28.4437 22.2619 28.516 22.4273C28.5767 22.5979 28.7682 22.715 28.9459 22.6633C29.104 22.6232 29.1939 22.4568 29.2056 22.3035C29.2091 22.215 29.2056 22.1265 29.2009 22.038C29.0973 22.0645 28.9843 22.0719 28.8844 22.0267C28.8029 21.9918 28.7325 21.935 28.6809 21.8624C28.6292 21.7899 28.5983 21.7045 28.5916 21.6155C28.6537 21.6934 28.7234 21.7725 28.8203 21.8058C29.008 21.8751 29.2493 21.7536 29.2835 21.5495C29.3096 21.4309 29.2572 21.3173 29.1878 21.2264Z" fill="#167062"/>
<path d="M25.7557 21.3837C26.1844 21.3893 26.6213 21.4927 26.975 21.7452C27.0386 21.7951 27.0922 21.8664 27.0787 21.9521C26.9124 21.9817 26.7379 22.0112 26.573 21.9583C26.2467 21.86 25.9602 21.6585 25.7557 21.3837Z" fill="#167062"/>
<path d="M20.9896 21.7095C21.2532 21.503 21.5878 21.3753 21.9234 21.4063C22.1559 21.4296 22.341 21.6423 22.355 21.8724C22.3755 22.1579 22.2405 22.4246 22.0941 22.66C22.1126 22.4505 22.0619 22.2104 21.8801 22.0845C21.76 22.0116 21.6127 21.9553 21.4719 21.996C21.2189 22.0644 21.0127 22.2382 20.816 22.4045C20.5198 22.6708 20.2509 22.9661 20.0131 23.2863C19.8637 23.4742 19.7129 23.6615 19.5753 23.8585C19.7076 23.4804 19.8991 23.127 20.1024 22.7839C20.3466 22.3871 20.6201 21.998 20.9896 21.7095Z" fill="#167062"/>
<path d="M24.1908 21.864C24.363 21.7345 24.5694 21.6427 24.7876 21.6427C25.064 21.6362 25.3609 21.7784 25.4734 22.0445C25.6007 22.3492 25.4979 22.7135 25.2833 22.9516C25.3343 22.651 25.2704 22.3138 25.0555 22.0891C24.8332 21.8702 24.4889 21.7634 24.1908 21.864Z" fill="#167062"/>
<path d="M14.4797 22.1371C14.5924 21.8631 14.9216 21.7141 15.203 21.7808C15.3705 21.8203 15.5055 21.935 15.6235 22.0554C15.3514 21.9734 15.0378 21.9669 14.7892 22.1197C14.6797 22.1828 14.6006 22.2846 14.5359 22.3908C14.3204 22.3493 14.0975 22.3744 13.8964 22.4628C13.7854 22.5141 13.7026 22.6076 13.6329 22.7053C13.6513 22.4542 13.8378 22.235 14.0689 22.1516C14.1989 22.102 14.3433 22.1176 14.4797 22.1371Z" fill="#167062"/>
<path d="M27.1009 22.4093C27.1679 22.1857 27.3117 21.9612 27.5378 21.8784C27.4611 22.0379 27.3946 22.2076 27.3931 22.3875C27.3782 22.6642 27.4883 22.9574 27.7152 23.125C27.7462 23.1497 27.7755 23.1764 27.8031 23.2049C27.5998 23.2164 27.3758 23.1816 27.225 23.0327C27.0652 22.8701 27.0318 22.6179 27.1009 22.4093Z" fill="#167062"/>
<path d="M9.47104 22.0153C9.51702 21.9595 9.58817 21.943 9.65816 21.9383C9.7484 22.0573 9.80388 22.1993 9.81833 22.3483C9.86167 22.6961 9.87133 23.0501 9.94073 23.3944C9.69095 23.2068 9.47222 22.959 9.38056 22.6534C9.30619 22.4439 9.31731 22.1864 9.47104 22.0153Z" fill="#167062"/>
<path d="M11.2307 22.1152C11.2343 22.0793 11.2498 22.0456 11.2747 22.0196C11.2996 21.9936 11.3325 21.9768 11.368 21.9719C11.5273 21.9579 11.6875 21.9563 11.847 21.9672C11.9674 21.9737 12.0661 22.0524 12.1501 22.1324C12.394 22.3684 12.5703 22.6601 12.7847 22.9206C12.8526 23.0091 12.9311 23.0884 12.9829 23.1861C12.4558 23.0566 11.908 22.9843 11.4225 22.7282C11.3217 22.6728 11.2321 22.5807 11.2175 22.4604C11.2073 22.3452 11.2118 22.2293 11.2307 22.1152Z" fill="#167062"/>
<path d="M16.9496 22.3309C16.9836 22.1512 17.1192 21.9899 17.2992 21.9474C17.4875 21.9067 17.6741 22.0129 17.7924 22.1539C17.8972 22.2857 17.9891 22.4338 18.021 22.6023C17.9332 22.4332 17.7891 22.2902 17.6067 22.2329C17.5327 22.2089 17.4534 22.2071 17.3785 22.2278C17.3035 22.2485 17.2362 22.2908 17.1847 22.3495C17.1233 22.4191 17.0992 22.5117 17.0852 22.602C16.9569 22.5291 16.8061 22.4801 16.6585 22.5158C16.4656 22.5545 16.3142 22.7138 16.2591 22.8993C16.1159 22.6713 16.2615 22.3453 16.5007 22.2542C16.6533 22.2005 16.812 22.266 16.9496 22.3309Z" fill="#167062"/>
<path d="M31.5028 22.6076C31.5613 22.4011 31.6143 22.1908 31.7186 22.0023C31.7514 23.4858 31.7365 24.9699 31.7429 26.4537C31.7385 27.247 31.7499 28.0402 31.7379 28.8334C31.6375 28.6024 31.5534 28.3645 31.4861 28.1216C31.3549 27.4555 31.2477 26.7826 31.2097 26.1039C31.1441 24.9331 31.1933 23.7425 31.5028 22.6076Z" fill="#167062"/>
<path d="M7.52225 22.0769C7.62913 22.2834 7.73426 22.4937 7.79282 22.72C7.95567 23.2857 8.04833 23.8697 8.06866 24.4584C8.11567 25.6772 8.02837 26.8976 7.80834 28.0971C7.7289 28.3934 7.62578 28.6827 7.5 28.9623C7.50469 26.6673 7.49414 24.3719 7.52225 22.0769Z" fill="#167062"/>
<path d="M10.2267 22.7711C10.3371 22.5328 10.5781 22.3983 10.7988 22.2835C10.6817 22.4121 10.5909 22.5853 10.6296 22.7649C10.6852 23.0655 10.9321 23.2856 11.1921 23.4175C11.6785 23.6647 12.2211 23.7658 12.7537 23.8549C12.2088 24.0266 11.6117 23.9909 11.0732 23.813C10.7977 23.7121 10.5122 23.5891 10.3198 23.357C10.1851 23.1997 10.1309 22.9617 10.2267 22.7711Z" fill="#167062"/>
<path d="M18.2471 22.6418C18.3841 22.5194 18.585 22.5011 18.7581 22.5377C18.831 22.5556 18.8982 22.5921 18.953 22.6438C19.0078 22.6955 19.0485 22.7606 19.0711 22.8327C19.1411 23.0168 19.1048 23.2194 19.0491 23.402C19.0198 23.2289 18.9487 23.0481 18.7961 22.9498C18.6904 22.8803 18.5649 22.848 18.439 22.858C18.3132 22.8681 18.1942 22.9199 18.1007 23.0053C18.127 22.8775 18.1522 22.7371 18.2471 22.6418Z" fill="#167062"/>
<path d="M25.7164 22.6888C25.7749 22.6543 25.8318 22.5968 25.9058 22.6039C26.0815 22.6118 26.2596 22.6104 26.4329 22.6396C26.4771 22.6466 26.4692 22.7074 26.4391 22.7281C26.3181 22.8328 26.1635 22.8844 26.0224 22.9546C26.1758 23.1375 26.3445 23.3086 26.483 23.503C26.5313 23.5717 26.5975 23.6325 26.6162 23.718C26.578 23.7219 26.5396 23.7139 26.5061 23.695C26.3597 23.621 26.2156 23.5363 26.0628 23.4738C26.0183 23.5726 25.9855 23.6765 25.9477 23.7782C25.9352 23.8127 25.9116 23.842 25.8807 23.8614C25.7735 23.7576 25.7574 23.5983 25.6821 23.4741C25.6344 23.3694 25.5451 23.2818 25.5214 23.1685L25.5594 23.1263C25.7155 23.1419 25.8446 23.2478 25.9869 23.308C25.9181 23.1871 25.8233 23.0812 25.7714 22.952C25.7817 22.8449 25.9214 22.8298 25.9937 22.7729C25.9492 22.754 25.9058 22.7245 25.8558 22.7292C25.8069 22.7257 25.7471 22.739 25.7164 22.6888Z" fill="#167062"/>
<path d="M8.23364 22.712C8.52646 22.9814 8.80142 23.2752 9.13055 23.502C9.6181 23.8498 10.1625 24.1062 10.7144 24.3327C11.6878 24.7162 12.7056 24.9802 13.7305 25.1764C14.2558 25.2779 14.7873 25.3407 15.319 25.4009C15.7243 25.4495 16.1263 25.5189 16.5307 25.5749C15.8151 25.5672 15.0997 25.5454 14.3841 25.5301C13.2889 25.456 12.2078 25.2245 11.1598 24.8991C10.663 24.7444 10.1791 24.5504 9.71268 24.3188C9.49307 24.2053 9.2755 24.0829 9.08253 23.9283C8.73261 23.6333 8.43979 23.2628 8.26585 22.8368C8.25227 22.796 8.2415 22.7543 8.23364 22.712Z" fill="#167062"/>
<path d="M14.4622 23.1793C14.4952 22.8669 14.8721 22.6368 15.1579 22.7734C15.2116 22.7992 15.2635 22.8288 15.3131 22.8619C15.1421 22.8442 14.9579 22.8793 14.8247 22.9946C14.7125 23.0893 14.6548 23.235 14.6449 23.3802C14.4361 23.3256 14.2027 23.333 14.0121 23.4427C13.9368 23.4843 13.88 23.5504 13.8197 23.6106C13.8062 23.4704 13.9005 23.3483 14.0071 23.2707C14.138 23.1752 14.3064 23.1575 14.4622 23.1793Z" fill="#167062"/>
<path d="M21.2375 22.8486C21.3678 22.7646 21.5371 22.6758 21.6899 22.7557C21.8114 22.8613 21.957 22.969 21.986 23.1392C22.0337 23.3914 21.8627 23.6345 21.6492 23.7498C21.3965 23.8846 21.104 23.8973 20.8252 23.9268C20.6252 23.9484 20.4244 23.9543 20.2235 23.9601C20.4899 23.5333 20.8144 23.1274 21.2375 22.8486Z" fill="#167062"/>
<path d="M22.3338 22.7217C22.6383 22.7512 22.8878 22.9642 23.0659 23.2002C23.2439 23.4361 23.3751 23.7311 23.3177 24.0285C23.243 24.3928 22.9888 24.7096 22.6644 24.8819C22.349 25.0539 21.9824 25.0966 21.629 25.079C21.2823 25.061 20.9406 24.9905 20.6067 24.8984C20.3087 24.8247 20.0396 24.6698 19.7669 24.5329C20.1769 24.5624 20.5781 24.6645 20.9895 24.6837C21.4609 24.7132 21.9616 24.6742 22.3777 24.4285C22.6149 24.2878 22.817 24.045 22.8243 23.7568C22.8354 23.5161 22.7233 23.2975 22.6132 23.0919C22.5344 22.9581 22.4407 22.8339 22.3338 22.7217Z" fill="#167062"/>
<path d="M24.3423 22.8346C24.5007 22.7948 24.6644 22.7461 24.8293 22.7741C24.9127 22.7877 24.9651 22.8673 24.973 22.9482C25.0027 23.156 24.9555 23.3675 24.8404 23.5426C24.7312 23.6921 24.5265 23.714 24.3572 23.6883C23.9643 23.6334 23.5924 23.4676 23.2606 23.2535C23.5982 23.0597 23.9704 22.9417 24.3423 22.8346Z" fill="#167062"/>
<path d="M16.9043 23.1637C16.8404 22.9621 17.0536 22.7644 17.2504 22.8054C17.1968 22.8433 17.1376 22.8796 17.106 22.9397C17.0474 23.0345 17.0606 23.1525 17.0846 23.2562C16.9701 23.266 16.8545 23.3059 16.7754 23.3931C16.7119 23.4555 16.6911 23.5453 16.6636 23.6275C16.53 23.4543 16.6841 23.1531 16.9043 23.1637Z" fill="#167062"/>
<path d="M29.4918 23.218C29.7846 23.218 30.0631 23.044 30.2162 22.7953C30.1977 22.942 30.139 23.0807 30.0467 23.1958C29.9544 23.3108 29.8321 23.3977 29.6935 23.4466C29.5407 23.5 29.3814 23.4528 29.2326 23.41C29.0625 23.7319 28.5884 23.8313 28.302 23.6074C28.1574 23.4921 28.0567 23.3289 27.9884 23.1584C28.1114 23.3033 28.2549 23.4505 28.4487 23.4885C28.7225 23.5502 29.0206 23.3513 29.0757 23.0755C29.2016 23.1525 29.341 23.2177 29.4918 23.218Z" fill="#167062"/>
<path d="M15.8495 23.0799C15.9272 22.9793 16.0581 22.9495 16.1778 22.9391C16.0868 22.9953 16.0166 23.0799 15.9778 23.18C15.9389 23.2801 15.9336 23.3903 15.9627 23.4937C15.9845 23.5738 16.0484 23.6294 16.1139 23.6746C15.8545 23.6492 15.689 23.2924 15.8495 23.0799Z" fill="#167062"/>
<path d="M13.3939 23.0311C13.3166 23.2267 13.318 23.4609 13.4352 23.6406C13.4766 23.7086 13.5331 23.7661 13.6002 23.8086C13.6673 23.851 13.7432 23.8773 13.822 23.8854C13.7464 24.0173 13.7198 24.1875 13.7945 24.3261C13.8741 24.4834 14.0472 24.5713 14.2182 24.5781C14.0065 24.7031 13.6955 24.635 13.5667 24.4208C13.4961 24.3028 13.5303 24.1589 13.5725 24.0373C13.3172 23.9907 13.1438 23.7152 13.1766 23.4624C13.1921 23.2963 13.2885 23.1544 13.3939 23.0311Z" fill="#167062"/>
<path d="M30.2913 23.3805C30.4221 23.1654 30.6792 23.0887 30.9062 23.0206C30.7305 23.1719 30.5495 23.3406 30.4822 23.5716C30.3984 23.8401 30.3975 24.1253 30.3852 24.4044C30.3709 25.069 30.4224 25.7318 30.4462 26.3964C30.4634 26.7923 30.4956 27.1873 30.551 27.5796C30.587 27.8489 30.6066 28.1201 30.6095 28.3918C30.604 28.5148 30.5978 28.6508 30.5185 28.7511C30.5005 28.7722 30.4783 28.7892 30.4533 28.8011C30.4283 28.813 30.4011 28.8195 30.3735 28.8201C30.3459 28.8207 30.3184 28.8155 30.293 28.8047C30.2675 28.7939 30.2446 28.7778 30.2257 28.7575C30.0977 28.6245 30.1006 28.4269 30.0792 28.2561C30.0265 27.6112 30.0017 26.964 29.982 26.3174C29.9677 25.5716 29.9551 24.82 30.0819 24.0822C30.1223 23.8412 30.1642 23.5926 30.2913 23.3805Z" fill="#167062"/>
<path d="M25.2282 23.2017C25.4092 23.2442 25.5796 23.3719 25.6335 23.5572C25.6678 23.6832 25.676 23.8151 25.6575 23.9445C25.6389 24.0739 25.5941 24.198 25.5257 24.3091C25.357 24.6097 25.0516 24.8218 24.7202 24.8991C24.4575 24.9604 24.1831 24.947 23.9275 24.8605C23.7082 24.7879 23.4763 24.7277 23.2924 24.5805C23.4681 24.6079 23.6437 24.6572 23.8232 24.6507C24.2405 24.6404 24.678 24.5693 25.0256 24.3203C25.2619 24.1522 25.4261 23.864 25.3986 23.5675C25.3863 23.428 25.3037 23.3135 25.2282 23.2017Z" fill="#167062"/>
<path d="M17.5179 23.4307C17.69 23.457 17.8537 23.5487 17.9433 23.7036C18.0359 23.5726 18.1899 23.5065 18.346 23.4995C18.2323 23.5832 18.1117 23.6885 18.0965 23.8393C18.0672 24.0458 18.2722 24.2381 18.4751 24.1977C18.6086 24.1797 18.705 24.0726 18.7641 23.9579C18.75 24.1287 18.6561 24.2989 18.4953 24.3685C18.3091 24.4594 18.0745 24.3903 17.9515 24.2266C17.9104 24.3033 17.8518 24.3692 17.7805 24.4187C17.7093 24.4682 17.6274 24.5001 17.5416 24.5116C17.2903 24.5493 17.0277 24.3809 16.9597 24.1334C16.9155 24.0036 16.9428 23.8655 16.989 23.7405C17.0359 23.9189 17.1416 24.1048 17.3287 24.1596C17.5281 24.2299 17.784 24.0871 17.7946 23.8647C17.8127 23.6773 17.6865 23.5021 17.5179 23.4307Z" fill="#167062"/>
<path d="M26.7909 23.7565C27.0155 23.5648 27.3017 23.4624 27.5958 23.4686C27.6588 23.4686 27.7581 23.5044 27.7423 23.5842C27.6819 23.7169 27.5472 23.7911 27.4284 23.8632C27.1318 24.0214 26.8269 24.163 26.515 24.2874C26.5392 24.0822 26.6374 23.8932 26.7909 23.7565Z" fill="#167062"/>
<path d="M14.9449 23.975C14.8862 23.745 15.1086 23.5266 15.3319 23.5384C15.2225 23.6233 15.1353 23.7504 15.14 23.8931C15.1336 24.0395 15.2248 24.1675 15.3357 24.2526C15.1788 24.2183 14.9877 24.1521 14.9449 23.975Z" fill="#167062"/>
<path d="M15.9452 24.2699C15.9543 24.0702 16.0397 23.8817 16.1836 23.744C16.1168 23.9569 16.1437 24.2159 16.3127 24.3744C16.4632 24.5195 16.7048 24.5342 16.8805 24.4274C16.9188 24.6003 16.9996 24.7758 17.1554 24.8699C17.3261 24.9879 17.5507 24.9832 17.7373 24.9077C17.6046 25.1245 17.3071 25.2027 17.0772 25.1121C16.9068 25.0502 16.8076 24.8859 16.7458 24.7242C16.6656 24.7602 16.5785 24.7782 16.4907 24.7767C16.4029 24.7753 16.3164 24.7546 16.2374 24.7159C16.0702 24.6366 15.9376 24.4623 15.9452 24.2699Z" fill="#167062"/>
<path d="M13.945 24.0264C13.9435 23.9829 13.9324 23.9132 13.9825 23.8931C14.0478 23.9729 14.1192 24.0574 14.2232 24.0837C14.3989 24.1349 14.5822 24.0542 14.7107 23.9359C14.6768 24.0749 14.6246 24.2289 14.4855 24.2933C14.2753 24.4172 13.9813 24.2655 13.945 24.0264Z" fill="#167062"/>
<path d="M28.1771 24.0534C28.4009 23.9944 28.6208 23.9132 28.8506 23.8864C28.9156 23.8681 28.976 23.9395 28.932 23.9976C28.8319 24.1504 28.6656 24.2422 28.511 24.3298C27.6861 24.7584 26.7508 24.9448 25.827 24.9442C25.6536 24.9301 25.4671 24.9487 25.309 24.8622C25.3787 24.8094 25.4653 24.795 25.5473 24.7737C25.8483 24.6979 26.1514 24.6298 26.4504 24.5454C27.0231 24.3702 27.6026 24.2212 28.1771 24.0534Z" fill="#167062"/>
<path d="M8.52296 24.1161C8.67376 24.0984 8.78884 24.219 8.88342 24.3199C9.04769 24.4951 9.10157 24.7409 9.12675 24.9733C9.1739 25.4556 9.08371 25.9359 9.01987 26.412C8.96131 26.8285 8.89162 27.2444 8.87346 27.6651C8.86175 27.9518 8.8638 28.2551 8.99528 28.5173C9.05648 28.6448 9.21724 28.7176 9.34373 28.6353C9.33846 28.7669 9.32119 28.9126 9.22866 29.0144C9.13144 29.1229 8.97302 29.1985 8.83013 29.1386C8.65824 29.0701 8.58474 28.8799 8.54258 28.7126C8.41286 28.1816 8.50978 27.6318 8.58504 27.1002C8.66966 26.4996 8.79001 25.9016 8.81929 25.2943C8.82749 24.9152 8.80026 24.5001 8.56542 24.1854C8.54902 24.1624 8.53555 24.1397 8.52296 24.1161Z" fill="#167062"/>
<path d="M29.1545 24.3116C29.3753 24.2593 29.6474 24.2658 29.8072 24.452C29.4872 24.4166 29.1923 24.6048 28.9873 24.8387C28.7141 25.1712 28.6067 25.6057 28.539 26.0216C28.4585 25.6452 28.5021 25.2449 28.6377 24.8865C28.7396 24.6475 28.8957 24.395 29.1545 24.3116Z" fill="#167062"/>
<path d="M15.1771 24.3371C15.3446 24.5712 15.6884 24.6404 15.9279 24.479C15.8246 24.6309 15.6366 24.7297 15.453 24.6971C15.3599 24.685 15.2787 24.6342 15.2041 24.5789C15.1514 24.6598 15.0755 24.7226 14.9866 24.7587C14.8976 24.7949 14.7998 24.8028 14.7063 24.7814C14.6082 24.7595 14.5274 24.696 14.4483 24.6368C14.5471 24.6761 14.6539 24.6901 14.7593 24.6776C14.8524 24.6627 14.9399 24.6235 15.0133 24.5637C15.0866 24.5039 15.1431 24.4258 15.1771 24.3371Z" fill="#167062"/>
<path d="M19.1486 24.5686C19.3243 24.6706 19.5055 24.7637 19.6859 24.8577C19.5494 24.8876 19.4085 24.8913 19.2707 24.8686C19.2106 25.0377 19.1178 25.203 18.9609 25.2978C18.7483 25.4439 18.4584 25.357 18.2771 25.1994C18.1234 25.0534 17.9905 24.855 17.9998 24.6333C18.15 24.7944 18.3246 24.9473 18.5407 25.0067C18.7272 25.0593 18.9506 24.9984 19.0625 24.8338C19.1181 24.7569 19.1369 24.6614 19.1486 24.5686Z" fill="#167062"/>
<path d="M9.89592 25.1367C9.98005 25.0772 10.0768 25.0384 10.1785 25.0234C10.2803 25.0083 10.384 25.0176 10.4816 25.0502C10.5761 25.093 10.6909 25.1582 10.6921 25.2777C10.5674 25.3072 10.4338 25.3072 10.3193 25.3724C10.0046 25.5258 9.79958 25.8376 9.67953 26.1591C9.53546 26.5535 9.48275 26.9756 9.4725 27.3939C9.46489 27.5574 9.4889 27.7225 9.45962 27.8845C9.41013 27.783 9.40955 27.668 9.39666 27.5582C9.33517 26.9942 9.31262 26.4131 9.46137 25.8606C9.54366 25.5904 9.66371 25.3104 9.89592 25.1367Z" fill="#167062"/>
<path d="M11.3123 25.5872C11.4107 25.6078 11.4795 25.6872 11.5465 25.7556C11.7407 25.9597 11.8394 26.2338 11.8979 26.5055C12.0095 27.0264 11.9978 27.5636 11.955 28.0946C11.9143 28.5604 11.8227 29.0265 11.8672 29.4955C11.8848 29.6403 11.9111 29.8079 12.0326 29.9041C12.0888 29.951 12.1635 29.904 12.2083 29.8645C12.3281 29.7501 12.3495 29.5748 12.3738 29.4194C12.4464 29.6784 12.4458 29.9698 12.3093 30.2079C12.2648 30.2783 12.2046 30.3371 12.1334 30.3797C12.0622 30.4224 11.982 30.4476 11.8994 30.4533C11.8188 30.4539 11.7392 30.4342 11.668 30.3963C11.5967 30.3583 11.5358 30.3031 11.4909 30.2356C11.3609 30.0235 11.3351 29.7666 11.3401 29.5226C11.3512 29.0149 11.4394 28.5135 11.5272 28.0146C11.6186 27.4474 11.6736 26.8621 11.5621 26.2937C11.5187 26.1031 11.4687 25.9102 11.377 25.7376C11.3515 25.6893 11.3299 25.6389 11.3123 25.5872Z" fill="#167062"/>
<path d="M18.4447 25.8528C18.6016 25.7637 18.7783 25.7165 18.9584 25.7156C19.2805 25.7124 19.614 25.802 19.8523 26.0277C19.8523 26.0363 19.8485 26.0522 19.8471 26.0604L19.8292 26.018C19.6725 26.0224 19.5138 25.9923 19.3607 26.0339C19.0851 26.1068 18.8521 26.3012 18.6972 26.5383C18.4336 26.9124 18.3376 27.3711 18.2453 27.8121C18.1133 28.4575 18.0304 29.1118 17.9525 29.7658C17.8123 28.8862 17.7511 27.9835 17.889 27.0994C17.9335 26.8233 17.9941 26.5475 18.0986 26.2873C18.1633 26.11 18.2998 25.969 18.4447 25.8528Z" fill="#167062"/>
<path d="M21.1353 25.9536C21.3421 25.7675 21.6331 25.7177 21.9014 25.7362C22.2574 25.7657 22.5772 25.9696 22.8117 26.2327C23.0987 26.5483 23.2738 26.9522 23.3634 27.3672C23.5028 27.9867 23.4846 28.6242 23.4846 29.2552C23.487 29.9764 23.5192 30.698 23.5432 31.4183C23.3195 31.2735 23.1186 31.0835 22.9883 30.8481C22.8574 30.5711 22.8712 30.2549 22.8762 29.9555C22.9031 29.3089 22.959 28.6617 22.9286 28.0136C22.9069 27.6115 22.8475 27.2065 22.7008 26.8298C22.5804 26.5212 22.3731 26.2362 22.0738 26.0887C21.7857 25.9474 21.4507 25.8802 21.1353 25.9536Z" fill="#167062"/>
<path d="M26.494 26.0988C26.6594 25.879 26.942 25.7209 27.2202 25.7858C27.3346 25.8103 27.4808 25.8492 27.5156 25.9787C27.3792 26.0097 27.2579 26.0835 27.1376 26.1522C26.9303 26.2702 26.8114 26.4926 26.7259 26.7083C26.5183 27.2431 26.4779 27.8233 26.443 28.3915C26.4006 29.1334 26.3962 29.8768 26.3844 30.6198C26.2451 30.093 26.1446 29.5543 26.123 29.0086C26.0937 28.3142 26.0351 27.6103 26.1648 26.9215C26.2225 26.631 26.3159 26.3383 26.494 26.0988Z" fill="#167062"/>
<path d="M27.9298 25.7811C28.0355 25.9383 28.1011 26.1185 28.1767 26.2914C28.4157 26.8848 28.5632 27.5115 28.6139 28.1498C28.6347 28.4793 28.6347 28.8212 28.519 29.1348C28.4713 29.2558 28.3945 29.3876 28.261 29.423C28.1688 29.449 28.0888 29.3699 28.0672 29.2861C28.0048 29.074 28.0086 28.8496 28.0028 28.6304C28.0028 27.8487 28.0672 27.0646 27.9846 26.2849C27.9708 26.1182 27.9351 25.9504 27.9298 25.7811Z" fill="#167062"/>
<path d="M23.6757 26.4085C23.9576 25.9557 24.6147 25.8135 25.0636 26.0908C25.3752 26.2755 25.5614 26.6189 25.6417 26.9643C25.7248 27.3392 25.7204 27.7263 25.7149 28.1083C25.6993 28.6873 25.692 29.267 25.6563 29.8452C25.6305 30.3159 25.6487 30.788 25.7105 31.2552C25.5368 31.19 25.3371 31.1234 25.242 30.9499C25.0996 30.7074 25.1122 30.4145 25.1049 30.1428C25.1251 29.4502 25.2042 28.7602 25.222 28.067C25.2302 27.6667 25.2095 27.2481 25.0302 26.8826C24.9011 26.6534 24.7319 26.4242 24.4792 26.3262C24.2177 26.2147 23.9105 26.2554 23.6757 26.4085Z" fill="#167062"/>
<path d="M12.5253 26.2478C12.5698 26.1868 12.6298 26.1389 12.699 26.1093C12.7682 26.0796 12.8441 26.0693 12.9186 26.0794C13.1157 26.0982 13.2741 26.2378 13.3871 26.3915C13.2612 26.3325 13.1101 26.2997 12.9771 26.3531C12.8348 26.4165 12.7294 26.544 12.6641 26.6841C12.567 26.8907 12.4932 27.1076 12.4439 27.3307C12.3854 27.6171 12.378 27.9112 12.3731 28.203C12.3712 28.2503 12.3655 28.2974 12.3558 28.3437C12.2857 27.8876 12.2677 27.4249 12.3022 26.9646C12.3233 26.7145 12.3704 26.4519 12.5253 26.2478Z" fill="#167062"/>
<path d="M15.9534 26.1477C16.3634 26.158 16.7543 26.3775 16.9959 26.7082C17.2134 27.0123 17.3297 27.379 17.3792 27.7477C17.4506 28.2852 17.3988 28.8295 17.3288 29.3643C17.2852 29.7292 17.2047 30.0944 17.241 30.4643C17.2459 30.6593 17.3288 30.872 17.5127 30.9619C17.6281 31.0233 17.7648 31.0047 17.8822 30.9587C17.8351 31.0965 17.7566 31.2372 17.6249 31.3071C17.4088 31.4083 17.1432 31.3593 16.959 31.2136C16.7315 31.0366 16.6237 30.7475 16.5938 30.4681C16.5484 30.1221 16.6419 29.7826 16.6861 29.4425C16.7725 28.8631 16.9382 28.2852 16.8785 27.694C16.8492 27.2811 16.696 26.8719 16.4228 26.558C16.2908 26.3934 16.1203 26.2701 15.9534 26.1477Z" fill="#167062"/>
<path d="M13.5428 26.3926C13.6306 26.4843 13.6871 26.6011 13.7832 26.6849C13.9778 26.859 14.2314 26.9511 14.4915 26.9421C14.825 26.9242 15.1322 26.7118 15.2888 26.4174C15.3354 26.6926 15.1846 26.9572 14.9878 27.1362C14.7858 27.3091 14.5167 27.4118 14.2499 27.3837C14.0403 27.3542 13.8517 27.2304 13.7228 27.0649C13.5668 26.8805 13.5395 26.625 13.5428 26.3926Z" fill="#167062"/>
<path d="M20.4545 26.4721C20.6352 27.6072 20.7637 28.7521 20.8077 29.9014C20.8077 30.1698 20.8077 30.4465 20.718 30.7029C20.6823 30.8037 20.6243 30.9158 20.5131 30.9465C20.3845 30.9834 20.253 30.8934 20.1992 30.779C20.1388 30.6489 20.1289 30.5023 20.1172 30.361C20.0999 30.0365 20.1333 29.712 20.1558 29.3875C20.1933 28.9285 20.2276 28.4692 20.2765 28.0111C20.3383 27.4969 20.42 26.9863 20.4545 26.4721Z" fill="#167062"/>
<path d="M30.9425 30.095C31.228 29.882 31.4631 29.6121 31.7105 29.3575C31.635 29.8047 31.5143 30.2546 31.2754 30.6437C31.1817 30.8065 31.0224 30.9113 30.8813 31.0272C30.1272 31.6145 29.2819 32.0735 28.4063 32.4485C27.2392 32.9452 26.0134 33.2942 24.7713 33.5399C22.157 34.0497 19.4642 34.1246 16.8212 33.8125C15.5035 33.6535 14.1963 33.3939 12.9266 33.0063C11.5589 32.5901 10.2298 32.0181 9.03593 31.2234C8.69011 30.9655 8.44824 30.5992 8.21603 30.241C8.0423 29.9756 7.89293 29.6948 7.76978 29.4021C8.38089 29.9009 9.03505 30.3505 9.74075 30.7027C10.2131 30.9508 10.6848 31.2015 11.1756 31.4107C12.4031 31.9417 13.6938 32.3148 15.0027 32.5783C16.2985 32.8343 17.6121 32.9881 18.9315 33.0381C20.4036 33.098 21.8781 33.0331 23.3394 32.844C24.65 32.6709 25.9499 32.3959 27.2069 31.9824C28.5331 31.5414 29.828 30.9526 30.9425 30.095Z" fill="#167062"/>
</g>
<path d="M53.6841 17.1138H52.4731C51.8364 17.1138 51.3474 17.2738 51.0063 17.5938C50.6766 17.9138 50.5117 18.4395 50.5117 19.1709H50V17.7138C50 16.7995 50.4833 16.3424 51.4498 16.3424H59.4661V17.1138H55.9014V27.6567H53.6841V17.1138Z" fill="#FDFDFD"/>
<path d="M69.4073 27.7252C68.691 27.7252 68.0428 27.5767 67.4629 27.2795C66.883 26.9709 66.4111 26.3767 66.0473 25.4967L65.655 24.5367H61.1181L59.7195 27.6567H58.8326L63.8641 16.3424H64.6316L68.4522 25.4967C68.8843 26.5595 69.4755 27.1309 70.226 27.2109V27.6395C70.0213 27.6967 69.7484 27.7252 69.4073 27.7252ZM61.4763 23.7652H65.3309L63.4548 19.2909L61.4763 23.7652Z" fill="#FDFDFD"/>
<path d="M70.0401 18.3481C69.7786 17.7195 69.5171 17.2738 69.2555 17.0109C69.0054 16.7481 68.7041 16.5938 68.3516 16.5481V16.2052L69.0679 16.1709C69.8184 16.1709 70.4779 16.3138 71.0464 16.5995C71.615 16.8852 72.0811 17.4681 72.445 18.3481L75.1399 24.7595L78.7387 16.3424H79.6085L74.6964 27.8281H74.0142L70.0401 18.3481Z" fill="#FDFDFD"/>
<path d="M82.8646 27.6567C82.4553 27.6567 82.1426 27.5938 81.9265 27.4681C81.7105 27.3309 81.557 27.1081 81.466 26.7995C81.3751 26.4795 81.3296 26.0224 81.3296 25.4281V16.3424H83.5469V25.4281C83.5469 26.0109 83.6264 26.4452 83.7856 26.7309C83.9448 27.0052 84.2632 27.1424 84.7408 27.1424H84.9113V27.6567H82.8646Z" fill="#FDFDFD"/>
<path d="M96.2657 27.8281C95.5493 27.8281 94.8614 27.6852 94.2019 27.3995C93.5538 27.1024 92.8545 26.5595 92.104 25.7709L89.358 22.8909V27.6567H87.1407L87.1237 18.5709C87.1237 17.9881 87.0441 17.5595 86.8849 17.2852C86.7257 16.9995 86.4073 16.8567 85.9298 16.8567H85.7592V16.3424H87.8059C88.2039 16.3424 88.5109 16.4109 88.7269 16.5481C88.9544 16.6852 89.1135 16.9138 89.2045 17.2338C89.3068 17.5538 89.358 17.9995 89.358 18.5709V21.8281L92.3087 18.1424C92.7294 17.5938 93.1786 17.1595 93.6561 16.8395C94.1451 16.5081 94.7022 16.3424 95.3276 16.3424H96.5215V16.9424C95.8165 16.9424 95.2082 17.0338 94.6965 17.2167C94.1962 17.3881 93.7641 17.7024 93.4003 18.1595L90.8589 21.3138L94.7989 25.4281C95.2196 25.8967 95.6915 26.3081 96.2145 26.6624C96.7489 27.0052 97.181 27.1995 97.5108 27.2452V27.6567C97.1697 27.7709 96.7546 27.8281 96.2657 27.8281Z" fill="#FDFDFD"/>
<path d="M102.831 27.9995C101.728 27.9995 100.744 27.7367 99.88 27.2109C99.0272 26.6852 98.3677 25.9652 97.9015 25.0509C97.4353 24.1367 97.2022 23.1195 97.2022 21.9995C97.2022 20.8795 97.4353 19.8624 97.9015 18.9481C98.3677 18.0338 99.0272 17.3138 99.88 16.7881C100.744 16.2624 101.728 15.9995 102.831 15.9995C103.934 15.9995 104.911 16.2624 105.764 16.7881C106.617 17.3138 107.277 18.0338 107.743 18.9481C108.209 19.8624 108.442 20.8795 108.442 21.9995C108.442 23.1195 108.209 24.1367 107.743 25.0509C107.277 25.9652 106.617 26.6852 105.764 27.2109C104.911 27.7367 103.934 27.9995 102.831 27.9995ZM102.831 27.2281C103.865 27.2281 104.667 26.7767 105.236 25.8738C105.804 24.9595 106.088 23.6681 106.088 21.9995C106.088 20.3309 105.804 19.0452 105.236 18.1424C104.667 17.2281 103.865 16.7709 102.831 16.7709C101.796 16.7709 100.994 17.2281 100.426 18.1424C99.8686 19.0452 99.59 20.3309 99.59 21.9995C99.59 23.6681 99.8686 24.9595 100.426 25.8738C100.994 26.7767 101.796 27.2281 102.831 27.2281Z" fill="#FDFDFD"/>
<path d="M120.286 27.9995C119.115 27.9995 118.103 27.7481 117.25 27.2452C116.408 26.7309 115.766 26.0338 115.322 25.1538C114.879 24.2738 114.657 23.2795 114.657 22.1709C114.657 21.0281 114.902 19.9881 115.391 19.0509C115.88 18.1024 116.55 17.3595 117.403 16.8224C118.267 16.2738 119.228 15.9995 120.286 15.9995C121.286 15.9995 122.122 16.1309 122.793 16.3938C123.464 16.6452 123.975 16.9767 124.328 17.3881C124.533 17.6509 124.658 17.9767 124.703 18.3652C124.749 18.7538 124.771 19.2967 124.771 19.9938H124.26C124.044 18.9424 123.646 18.1424 123.066 17.5938C122.486 17.0452 121.73 16.7709 120.797 16.7709C119.638 16.7709 118.722 17.1824 118.051 18.0052C117.381 18.8281 117.045 20.2167 117.045 22.1709C117.045 23.6224 117.352 24.8281 117.966 25.7881C118.58 26.7481 119.524 27.2281 120.797 27.2281C121.593 27.2281 122.321 27.0167 122.981 26.5938C123.651 26.1709 124.192 25.5652 124.601 24.7767L125.198 25.2395C124.652 26.1995 123.993 26.9024 123.219 27.3481C122.446 27.7824 121.468 27.9995 120.286 27.9995Z" fill="#FDFDFD"/>
<path d="M136.655 27.7252C135.938 27.7252 135.29 27.5767 134.71 27.2795C134.13 26.9709 133.658 26.3767 133.294 25.4967L132.902 24.5367H128.365L126.967 27.6567H126.08L131.111 16.3424H131.879L135.699 25.4967C136.131 26.5595 136.723 27.1309 137.473 27.2109V27.6395C137.269 27.6967 136.996 27.7252 136.655 27.7252ZM128.723 23.7652H132.578L130.702 19.2909L128.723 23.7652Z" fill="#FDFDFD"/>
<path d="M148.09 27.8281C147.374 27.8281 146.686 27.6852 146.026 27.3995C145.378 27.1024 144.679 26.5595 143.928 25.7709L141.182 22.8909V27.6567H138.965L138.948 18.5709C138.948 17.9881 138.868 17.5595 138.709 17.2852C138.55 16.9995 138.232 16.8567 137.754 16.8567H137.583V16.3424H139.63C140.028 16.3424 140.335 16.4109 140.551 16.5481C140.779 16.6852 140.938 16.9138 141.029 17.2338C141.131 17.5538 141.182 17.9995 141.182 18.5709V21.8281L144.133 18.1424C144.554 17.5938 145.003 17.1595 145.48 16.8395C145.969 16.5081 146.526 16.3424 147.152 16.3424H148.346V16.9424C147.641 16.9424 147.032 17.0338 146.521 17.2167C146.02 17.3881 145.588 17.7024 145.224 18.1595L142.683 21.3138L146.623 25.4281C147.044 25.8967 147.516 26.3081 148.039 26.6624C148.573 27.0052 149.005 27.1995 149.335 27.2452V27.6567C148.994 27.7709 148.579 27.8281 148.09 27.8281Z" fill="#FDFDFD"/>
<path d="M151.115 18.5709C151.115 17.9881 151.035 17.5595 150.876 17.2852C150.717 16.9995 150.399 16.8567 149.921 16.8567H149.75V16.3424H157.272C158.239 16.3424 158.722 16.7995 158.722 17.7138V19.1709H158.21C158.21 18.4624 158.028 17.9424 157.664 17.6109C157.312 17.2795 156.783 17.1138 156.078 17.1138H153.332V21.3995H157.767V22.1709H153.332V26.8852H156.249C156.897 26.8852 157.437 26.7424 157.869 26.4567C158.301 26.1595 158.659 25.6509 158.944 24.9309L159.404 25.1024L158.91 26.4567C158.762 26.8681 158.585 27.1709 158.381 27.3652C158.176 27.5595 157.858 27.6567 157.426 27.6567H151.115V18.5709Z" fill="#FDFDFD"/>
<path d="M164.719 27.9481C164.082 27.9481 163.468 27.8624 162.877 27.6909C162.286 27.5309 161.802 27.2967 161.427 26.9881C161.052 26.6681 160.864 26.3024 160.864 25.8909V23.8852H161.342C161.512 25.0509 161.871 25.8909 162.416 26.4052C162.962 26.9195 163.724 27.1767 164.702 27.1767C165.361 27.1767 165.884 27.0338 166.271 26.7481C166.658 26.4624 166.851 26.0509 166.851 25.5138C166.851 25.0567 166.709 24.6681 166.425 24.3481C166.14 24.0281 165.697 23.6795 165.094 23.3024L162.996 22.0338C162.234 21.5881 161.689 21.1252 161.359 20.6452C161.041 20.1652 160.881 19.6052 160.881 18.9652C160.881 18.0624 161.222 17.3481 161.905 16.8224C162.598 16.2967 163.531 16.0338 164.702 16.0338C165.339 16.0338 165.953 16.1195 166.544 16.2909C167.135 16.4509 167.618 16.6909 167.994 17.0109C168.369 17.3195 168.557 17.6795 168.557 18.0909V20.0967H168.079C167.886 18.9309 167.528 18.0909 167.004 17.5767C166.481 17.0624 165.776 16.8052 164.89 16.8052C164.275 16.8052 163.787 16.9538 163.423 17.2509C163.07 17.5481 162.894 17.9538 162.894 18.4681C162.894 18.9138 163.03 19.2852 163.303 19.5824C163.588 19.8681 164.042 20.1938 164.668 20.5595L166.766 21.8109C167.562 22.2795 168.13 22.7367 168.471 23.1824C168.824 23.6167 169 24.1424 169 24.7595C169 25.7538 168.625 26.5367 167.874 27.1081C167.135 27.6681 166.083 27.9481 164.719 27.9481Z" fill="#FDFDFD"/>
<defs>
<clipPath id="clip0_1436_12980">
<rect width="25" height="28" fill="white" transform="translate(7.5 6)"/>
</clipPath>
</defs>
</svg>
