<svg width="119" height="12" viewBox="0 0 119 12" fill="none" xmlns="http://www.w3.org/2000/svg">
<path d="M3.68409 1.1138H2.47312C1.83636 1.1138 1.34742 1.2738 1.0063 1.5938C0.676554 1.9138 0.51168 2.43951 0.51168 3.17094H0V1.7138C0 0.799511 0.483253 0.342369 1.44976 0.342369H9.46607V1.1138H5.90137V11.6567H3.68409V1.1138Z" fill="#FDFDFD"/>
<path d="M19.4073 11.7252C18.691 11.7252 18.0428 11.5767 17.4629 11.2795C16.883 10.9709 16.4111 10.3767 16.0473 9.49665L15.655 8.53665H11.1181L9.71951 11.6567H8.8326L13.8641 0.342369H14.6316L18.4522 9.49665C18.8843 10.5595 19.4755 11.1309 20.226 11.2109V11.6395C20.0213 11.6967 19.7484 11.7252 19.4073 11.7252ZM11.4763 7.76523H15.3309L13.4548 3.29094L11.4763 7.76523Z" fill="#FDFDFD"/>
<path d="M20.0401 2.34808C19.7786 1.71951 19.5171 1.2738 19.2555 1.01094C19.0054 0.748082 18.7041 0.593797 18.3516 0.548083V0.205225L19.0679 0.17094C19.8184 0.17094 20.4779 0.313797 21.0464 0.599511C21.6149 0.885226 22.0811 1.46808 22.445 2.34808L25.1399 8.75951L28.7387 0.342369H29.6085L24.6964 11.8281H24.0142L20.0401 2.34808Z" fill="#FDFDFD"/>
<path d="M32.8646 11.6567C32.4553 11.6567 32.1426 11.5938 31.9265 11.4681C31.7105 11.3309 31.557 11.1081 31.466 10.7995C31.3751 10.4795 31.3296 10.0224 31.3296 9.42808V0.342369H33.5469V9.42808C33.5469 10.0109 33.6265 10.4452 33.7856 10.7309C33.9448 11.0052 34.2632 11.1424 34.7408 11.1424H34.9113V11.6567H32.8646Z" fill="#FDFDFD"/>
<path d="M46.2657 11.8281C45.5493 11.8281 44.8614 11.6852 44.2019 11.3995C43.5538 11.1024 42.8545 10.5595 42.104 9.77094L39.358 6.89094V11.6567H37.1407L37.1237 2.57094C37.1237 1.98808 37.0441 1.55951 36.8849 1.28523C36.7257 0.999511 36.4073 0.856654 35.9298 0.856654H35.7592V0.342369H37.8059C38.2039 0.342369 38.5109 0.41094 38.7269 0.548083C38.9544 0.685226 39.1135 0.913797 39.2045 1.2338C39.3068 1.5538 39.358 1.99951 39.358 2.57094V5.82808L42.3087 2.14237C42.7294 1.5938 43.1786 1.15951 43.6561 0.839511C44.1451 0.508083 44.7022 0.342369 45.3276 0.342369H46.5215V0.942369C45.8165 0.942369 45.2082 1.0338 44.6965 1.21665C44.1962 1.38808 43.7641 1.70237 43.4003 2.15951L40.8589 5.3138L44.7989 9.42808C45.2196 9.89665 45.6915 10.3081 46.2145 10.6624C46.7489 11.0052 47.181 11.1995 47.5108 11.2452V11.6567C47.1697 11.7709 46.7546 11.8281 46.2657 11.8281Z" fill="#FDFDFD"/>
<path d="M52.8306 11.9995C51.7277 11.9995 50.7441 11.7367 49.88 11.2109C49.0272 10.6852 48.3677 9.96523 47.9015 9.05094C47.4353 8.13665 47.2022 7.11951 47.2022 5.99951C47.2022 4.87951 47.4353 3.86237 47.9015 2.94808C48.3677 2.0338 49.0272 1.3138 49.88 0.788083C50.7441 0.262369 51.7277 -0.000488281 52.8306 -0.000488281C53.9336 -0.000488281 54.9115 0.262369 55.7643 0.788083C56.6171 1.3138 57.2766 2.0338 57.7428 2.94808C58.209 3.86237 58.4421 4.87951 58.4421 5.99951C58.4421 7.11951 58.209 8.13665 57.7428 9.05094C57.2766 9.96523 56.6171 10.6852 55.7643 11.2109C54.9115 11.7367 53.9336 11.9995 52.8306 11.9995ZM52.8306 11.2281C53.8654 11.2281 54.667 10.7767 55.2355 9.8738C55.8041 8.95951 56.0883 7.66808 56.0883 5.99951C56.0883 4.33094 55.8041 3.04523 55.2355 2.14237C54.667 1.22808 53.8654 0.77094 52.8306 0.77094C51.7959 0.77094 50.9943 1.22808 50.4258 2.14237C49.8686 3.04523 49.59 4.33094 49.59 5.99951C49.59 7.66808 49.8686 8.95951 50.4258 9.8738C50.9943 10.7767 51.7959 11.2281 52.8306 11.2281Z" fill="#FDFDFD"/>
<path d="M70.2857 11.9995C69.1145 11.9995 68.1025 11.7481 67.2497 11.2452C66.4083 10.7309 65.7659 10.0338 65.3224 9.1538C64.879 8.2738 64.6572 7.27951 64.6572 6.17094C64.6572 5.02808 64.9017 3.98808 65.3906 3.05094C65.8796 2.10237 66.5504 1.35951 67.4032 0.822369C68.2674 0.273797 69.2282 -0.000488281 70.2857 -0.000488281C71.2863 -0.000488281 72.1221 0.13094 72.7929 0.393797C73.4638 0.645226 73.9755 0.976654 74.328 1.38808C74.5327 1.65094 74.6577 1.97665 74.7032 2.36523C74.7487 2.7538 74.7714 3.29665 74.7714 3.9938H74.2598C74.0437 2.94237 73.6457 2.14237 73.0658 1.5938C72.4859 1.04523 71.7298 0.77094 70.7974 0.77094C69.6376 0.77094 68.7222 1.18237 68.0514 2.00523C67.3805 2.82808 67.0451 4.21665 67.0451 6.17094C67.0451 7.62237 67.3521 8.82808 67.9661 9.78808C68.5801 10.7481 69.5239 11.2281 70.7974 11.2281C71.5933 11.2281 72.3211 11.0167 72.9806 10.5938C73.6514 10.1709 74.1915 9.56523 74.6009 8.77665L75.1978 9.23951C74.652 10.1995 73.9925 10.9024 73.2193 11.3481C72.4461 11.7824 71.4683 11.9995 70.2857 11.9995Z" fill="#FDFDFD"/>
<path d="M86.6545 11.7252C85.9382 11.7252 85.29 11.5767 84.7101 11.2795C84.1302 10.9709 83.6584 10.3767 83.2945 9.49665L82.9022 8.53665H78.3653L76.9667 11.6567H76.0798L81.1113 0.342369H81.8788L85.6994 9.49665C86.1315 10.5595 86.7227 11.1309 87.4732 11.2109V11.6395C87.2685 11.6967 86.9956 11.7252 86.6545 11.7252ZM78.7235 7.76523H82.5781L80.702 3.29094L78.7235 7.76523Z" fill="#FDFDFD"/>
<path d="M98.0899 11.8281C97.3735 11.8281 96.6856 11.6852 96.0261 11.3995C95.378 11.1024 94.6787 10.5595 93.9282 9.77094L91.1822 6.89094V11.6567H88.9649L88.9479 2.57094C88.9479 1.98808 88.8683 1.55951 88.7091 1.28523C88.5499 0.999511 88.2315 0.856654 87.754 0.856654H87.5834V0.342369H89.6301C90.0281 0.342369 90.3351 0.41094 90.5512 0.548083C90.7786 0.685226 90.9378 0.913797 91.0287 1.2338C91.1311 1.5538 91.1822 1.99951 91.1822 2.57094V5.82808L94.1329 2.14237C94.5536 1.5938 95.0028 1.15951 95.4803 0.839511C95.9693 0.508083 96.5264 0.342369 97.1518 0.342369H98.3457V0.942369C97.6408 0.942369 97.0324 1.0338 96.5207 1.21665C96.0204 1.38808 95.5884 1.70237 95.2245 2.15951L92.6832 5.3138L96.6231 9.42808C97.0438 9.89665 97.5157 10.3081 98.0387 10.6624C98.5731 11.0052 99.0052 11.1995 99.335 11.2452V11.6567C98.9939 11.7709 98.5788 11.8281 98.0899 11.8281Z" fill="#FDFDFD"/>
<path d="M101.115 2.57094C101.115 1.98808 101.035 1.55951 100.876 1.28523C100.717 0.999511 100.399 0.856654 99.921 0.856654H99.7505V0.342369H107.272C108.239 0.342369 108.722 0.799511 108.722 1.7138V3.17094H108.21C108.21 2.46237 108.028 1.94237 107.664 1.61094C107.312 1.27951 106.783 1.1138 106.078 1.1138H103.332V5.39951H107.767V6.17094H103.332V10.8852H106.249C106.897 10.8852 107.437 10.7424 107.869 10.4567C108.301 10.1595 108.659 9.65094 108.944 8.93094L109.404 9.10237L108.91 10.4567C108.762 10.8681 108.585 11.1709 108.381 11.3652C108.176 11.5595 107.858 11.6567 107.426 11.6567H101.115V2.57094Z" fill="#FDFDFD"/>
<path d="M114.719 11.9481C114.082 11.9481 113.468 11.8624 112.877 11.6909C112.286 11.5309 111.802 11.2967 111.427 10.9881C111.052 10.6681 110.864 10.3024 110.864 9.89094V7.88523H111.342C111.512 9.05094 111.871 9.89094 112.416 10.4052C112.962 10.9195 113.724 11.1767 114.702 11.1767C115.361 11.1767 115.884 11.0338 116.271 10.7481C116.658 10.4624 116.851 10.0509 116.851 9.5138C116.851 9.05665 116.709 8.66808 116.425 8.34808C116.14 8.02808 115.697 7.67951 115.094 7.30237L112.996 6.0338C112.234 5.58808 111.689 5.12523 111.359 4.64523C111.041 4.16523 110.881 3.60523 110.881 2.96523C110.881 2.06237 111.222 1.34808 111.905 0.822369C112.598 0.296654 113.531 0.033797 114.702 0.033797C115.339 0.033797 115.953 0.119511 116.544 0.29094C117.135 0.45094 117.618 0.69094 117.994 1.01094C118.369 1.31951 118.557 1.67951 118.557 2.09094V4.09665H118.079C117.886 2.93094 117.528 2.09094 117.004 1.57665C116.481 1.06237 115.776 0.805226 114.89 0.805226C114.275 0.805226 113.787 0.953797 113.423 1.25094C113.07 1.54808 112.894 1.9538 112.894 2.46808C112.894 2.9138 113.03 3.28523 113.303 3.58237C113.588 3.86808 114.042 4.1938 114.668 4.55951L116.766 5.81094C117.562 6.27951 118.13 6.73665 118.471 7.18237C118.824 7.61665 119 8.14237 119 8.75951C119 9.7538 118.625 10.5367 117.874 11.1081C117.135 11.6681 116.083 11.9481 114.719 11.9481Z" fill="#FDFDFD"/>
</svg>
