<!-- Generated by IcoMoon.io -->
<svg version="1.1" xmlns="http://www.w3.org/2000/svg" width="32" height="32" viewBox="0 0 32 32">
<title>phone</title>
<path fill="none" stroke-linejoin="round" stroke-linecap="round" stroke-miterlimit="4" stroke-width="2" stroke="currentColor" d="M27.999 21.969v3.613c0.001 0.335-0.067 0.667-0.202 0.975s-0.332 0.583-0.58 0.81c-0.248 0.227-0.54 0.399-0.858 0.507s-0.656 0.147-0.99 0.117c-3.713-0.403-7.28-1.669-10.414-3.697-2.916-1.849-5.388-4.316-7.24-7.226-2.039-3.142-3.309-6.719-3.705-10.441-0.030-0.333 0.010-0.669 0.116-0.986s0.279-0.608 0.505-0.855c0.226-0.247 0.501-0.444 0.807-0.579s0.638-0.205 0.973-0.205h3.62c0.586-0.006 1.153 0.201 1.597 0.582s0.734 0.91 0.816 1.489c0.153 1.156 0.436 2.292 0.845 3.384 0.162 0.431 0.197 0.899 0.101 1.35s-0.32 0.864-0.644 1.191l-1.533 1.53c1.718 3.015 4.219 5.512 7.24 7.226l1.532-1.529c0.328-0.324 0.742-0.547 1.194-0.643s0.921-0.061 1.352 0.101c1.095 0.408 2.232 0.691 3.391 0.843 0.586 0.083 1.122 0.377 1.504 0.828s0.586 1.026 0.571 1.617z"></path>
</svg>
