<!-- Generated by IcoMoon.io -->
<svg version="1.1" xmlns="http://www.w3.org/2000/svg" width="32" height="32" viewBox="0 0 32 32">
<title>question</title>
<path fill="none" stroke="currentColor" stroke-linejoin="round" stroke-linecap="round" stroke-miterlimit="4" stroke-width="1.3333" d="M16 30.667c8.1 0 14.667-6.567 14.667-14.667s-6.567-14.667-14.667-14.667c-8.1 0-14.667 6.566-14.667 14.667s6.566 14.667 14.667 14.667z"></path>
<path d="M15.81 22.667c0.421 0 0.762-0.351 0.762-0.784s-0.341-0.784-0.762-0.784c-0.421 0-0.762 0.351-0.762 0.784s0.341 0.784 0.762 0.784z"></path>
<path fill="none" stroke="currentColor" stroke-linejoin="round" stroke-linecap="round" stroke-miterlimit="4" stroke-width="1.3333" d="M16 18.746v-1.177c0.791 0 1.565-0.242 2.222-0.694s1.171-1.096 1.473-1.848c0.303-0.753 0.382-1.58 0.228-2.379s-0.535-1.533-1.095-2.108c-0.559-0.576-1.272-0.968-2.048-1.127s-1.58-0.077-2.311 0.234c-0.731 0.312-1.356 0.839-1.795 1.517s-0.674 1.473-0.674 2.288"></path>
</svg>
