<!-- Generated by IcoMoon.io -->
<svg version="1.1" xmlns="http://www.w3.org/2000/svg" width="32" height="32" viewBox="0 0 32 32">
<title>required-icon</title>
<path d="M28.462 21.588l-1.284 2.166c-0.354 0.598-1.14 0.803-1.753 0.457l-6.898-3.883v7.755c0 0.69-0.574 1.25-1.283 1.25h-2.566c-0.709 0-1.283-0.56-1.283-1.25v-7.755l-6.85 3.885c-0.614 0.345-1.399 0.141-1.754-0.457l-1.284-2.166c-0.354-0.598-0.145-1.361 0.469-1.707l6.898-3.883-6.898-3.88c-0.614-0.349-0.823-1.109-0.469-1.708l1.284-2.166c0.354-0.598 1.14-0.803 1.754-0.457l6.898 3.883-0.046-7.755c0-0.69 0.574-1.25 1.283-1.25h2.567c0.709 0 1.283 0.56 1.283 1.25v7.755l6.898-3.883c0.614-0.345 1.399-0.141 1.753 0.457l1.283 2.166c0.355 0.598 0.145 1.361-0.469 1.707l-6.852 3.881 6.898 3.882c0.614 0.347 0.823 1.108 0.422 1.707z"></path>
</svg>
