<!-- Generated by IcoMoon.io -->
<svg version="1.1" xmlns="http://www.w3.org/2000/svg" width="32" height="32" viewBox="0 0 32 32">
<title>telegram-circle</title>
<path fill="currentColor" d="M30 16c0 7.731-6.269 14-14 14s-14-6.269-14-14c0-7.732 6.268-14 14-14s14 6.268 14 14zM16.502 12.335c-1.362 0.566-4.083 1.738-8.164 3.516-0.663 0.264-1.010 0.522-1.042 0.774-0.054 0.427 0.481 0.595 1.206 0.822 0.099 0.032 0.202 0.063 0.307 0.098 0.715 0.232 1.676 0.504 2.176 0.515 0.454 0.009 0.96-0.177 1.519-0.56 3.813-2.575 5.781-3.876 5.905-3.904 0.087-0.020 0.209-0.046 0.29 0.028 0.082 0.072 0.074 0.21 0.065 0.247-0.054 0.225-2.147 2.172-3.232 3.18-0.338 0.314-0.578 0.537-0.627 0.588-0.11 0.113-0.222 0.222-0.329 0.325-0.665 0.639-1.162 1.12 0.028 1.904 0.572 0.377 1.029 0.688 1.485 0.999 0.498 0.34 0.995 0.678 1.639 1.1 0.163 0.107 0.32 0.218 0.472 0.327 0.58 0.414 1.101 0.785 1.745 0.727 0.373-0.035 0.761-0.386 0.957-1.435 0.463-2.48 1.376-7.852 1.587-10.066 0.013-0.184 0.005-0.369-0.023-0.551-0.017-0.147-0.089-0.282-0.201-0.379-0.167-0.137-0.426-0.166-0.542-0.163-0.526 0.009-1.334 0.29-5.222 1.907z"></path>
</svg>
