<!-- Generated by IcoMoon.io -->
<svg version="1.1" xmlns="http://www.w3.org/2000/svg" width="32" height="32" viewBox="0 0 32 32">
<title>viber-circle</title>
<path fill="currentColor" d="M16 31.4c8.505 0 15.4-6.895 15.4-15.4s-6.895-15.4-15.4-15.4c-8.505 0-15.4 6.895-15.4 15.4s6.895 15.4 15.4 15.4zM9.635 9.667c1.64-1.492 4.574-1.714 5.94-1.734l-0.003 0.002c0.455-0.006 0.735 0.012 0.735 0.012 3.806 0.016 5.514 1.246 5.936 1.633 1.404 1.206 2.183 3.884 1.659 8.114-0.462 3.738-3.090 4.401-3.971 4.623-0.087 0.022-0.156 0.039-0.205 0.055-0.24 0.077-2.339 0.598-5.068 0.369-0.301 0.349-0.702 0.801-0.99 1.11-0.088 0.094-0.17 0.186-0.248 0.274-0.394 0.444-0.696 0.783-1.155 0.641-0.459-0.141-0.432-0.827-0.432-0.827l0.003-1.698h-0.002c-3.992-1.113-3.934-5.22-3.889-7.41s0.474-3.957 1.692-5.166zM16.24 9.135c0 0-0.237-0.015-0.624-0.012l0.004-0.001c-1.16 0.008-3.65 0.181-5.040 1.427-1.030 1.008-1.377 2.508-1.415 4.338-0.001 0.060-0.003 0.121-0.004 0.184-0.044 1.87-0.121 5.17 3.144 6.067l-0.014 2.824c-0.001 0.159 0.025 0.268 0.117 0.291 0.065 0.016 0.164-0.017 0.25-0.101 0.539-0.537 2.266-2.603 2.266-2.603 2.319 0.15 4.163-0.305 4.361-0.368 0.046-0.015 0.113-0.030 0.197-0.049 0.753-0.174 2.843-0.655 3.228-3.742v-0.001c0.442-3.534-0.164-5.947-1.351-6.956-0.358-0.322-1.9-1.283-5.119-1.297zM15.741 11.017c0.038-0.039 0.090-0.063 0.145-0.066 1.244 0.008 2.309 0.425 3.153 1.24 0.849 0.821 1.277 1.954 1.287 3.348 0 0.056-0.022 0.11-0.062 0.15s-0.094 0.063-0.151 0.064c-0.118 0-0.216-0.093-0.218-0.211-0.009-1.311-0.397-2.311-1.158-3.046-0.767-0.741-1.704-1.112-2.855-1.119-0.055-0.003-0.106-0.028-0.144-0.068s-0.058-0.093-0.058-0.147c0-0.055 0.022-0.107 0.060-0.146zM12.642 11.522c0.133-0.074 0.286-0.103 0.437-0.082l-0.001 0.001c0.14 0.024 0.267 0.098 0.356 0.209 0.202 0.238 0.398 0.48 0.588 0.727 0.181 0.252 0.349 0.514 0.503 0.784 0.203 0.359 0.076 0.726-0.121 0.877l-0.399 0.315c-0.202 0.162-0.176 0.461-0.176 0.461s0.592 2.22 2.803 2.78c0 0 0.303 0.026 0.466-0.173l0.317-0.396c0.153-0.197 0.523-0.323 0.885-0.122 0.271 0.153 0.534 0.32 0.789 0.499 0.179 0.131 0.499 0.392 0.651 0.515 0.051 0.042 0.084 0.068 0.084 0.068 0.234 0.195 0.287 0.484 0.128 0.787l-0.002 0.007c-0.175 0.301-0.397 0.575-0.659 0.807-0.002 0.001-0.002 0.002-0.003 0.002s-0.001 0.001-0.003 0.001c-0.228 0.19-0.452 0.298-0.672 0.323-0.129 0.015-0.259 0.001-0.383-0.039l-0.007-0.010c-0.339-0.096-0.904-0.332-1.846-0.848-0.544-0.295-1.063-0.635-1.55-1.017-0.244-0.19-0.478-0.395-0.698-0.611l-0.094-0.093c-0.22-0.219-0.425-0.45-0.617-0.692-0.385-0.482-0.727-0.997-1.025-1.536-0.519-0.933-0.758-1.493-0.854-1.83l-0.009-0.007c-0.030-0.091-0.046-0.186-0.046-0.281-0.002-0.033-0.001-0.066 0.005-0.098 0.028-0.218 0.137-0.439 0.326-0.666 0.001-0.001 0.002-0.002 0.003-0.003s0.002-0.001 0.003-0.003c0.234-0.26 0.508-0.481 0.812-0.655l0.007-0.001zM16.108 12.117c0.041-0.039 0.097-0.060 0.154-0.058l0.001-0.001h0.017c0.902 0.065 1.637 0.377 2.162 0.946 0.52 0.563 0.774 1.278 0.756 2.104-0.005 0.054-0.031 0.104-0.072 0.14s-0.094 0.055-0.148 0.054c-0.055-0.001-0.107-0.023-0.146-0.060s-0.063-0.088-0.066-0.143c0.017-0.735-0.196-1.323-0.642-1.806-0.445-0.481-1.053-0.748-1.875-0.808-0.057-0.002-0.111-0.026-0.15-0.067s-0.060-0.096-0.058-0.152 0.026-0.11 0.067-0.149zM16.443 13.264c0.039-0.037 0.092-0.059 0.146-0.059l0.003-0.001h0.013c0.444 0.023 0.817 0.161 1.077 0.427 0.259 0.266 0.39 0.642 0.411 1.094-0.002 0.053-0.024 0.104-0.062 0.142s-0.089 0.061-0.143 0.063c-0.054 0.003-0.107-0.015-0.148-0.049s-0.069-0.082-0.076-0.135c-0.020-0.382-0.125-0.646-0.295-0.818-0.169-0.174-0.418-0.277-0.789-0.297-0.119-0.007-0.21-0.108-0.204-0.225 0.003-0.054 0.027-0.105 0.066-0.142z"></path>
</svg>
