<!-- Generated by IcoMoon.io -->
<svg version="1.1" xmlns="http://www.w3.org/2000/svg" width="32" height="32" viewBox="0 0 32 32">
<title>vk-circle</title>
<path fill="currentColor" d="M16 2c-7.732 0-14 6.268-14 14s6.268 14 14 14c7.732 0 14-6.268 14-14s-6.268-14-14-14zM21.384 17.795c0 0 1.238 1.222 1.543 1.789 0.009 0.012 0.013 0.023 0.016 0.029 0.124 0.209 0.153 0.37 0.092 0.491-0.102 0.201-0.452 0.3-0.572 0.309h-2.187c-0.152 0-0.47-0.039-0.855-0.305-0.296-0.207-0.588-0.547-0.872-0.878-0.424-0.493-0.792-0.919-1.162-0.919-0.047-0-0.094 0.007-0.139 0.022-0.28 0.090-0.639 0.49-0.639 1.555 0 0.332-0.263 0.524-0.448 0.524h-1.002c-0.341 0-2.119-0.12-3.694-1.781-1.928-2.034-3.663-6.115-3.678-6.153-0.109-0.264 0.117-0.405 0.363-0.405h2.209c0.295 0 0.391 0.179 0.458 0.338 0.079 0.185 0.368 0.922 0.841 1.75 0.769 1.35 1.24 1.899 1.617 1.899 0.071-0.001 0.14-0.019 0.203-0.053 0.493-0.274 0.401-2.031 0.379-2.396 0-0.069-0.001-0.786-0.254-1.13-0.181-0.249-0.489-0.344-0.675-0.379 0.076-0.104 0.175-0.189 0.29-0.246 0.338-0.169 0.948-0.194 1.553-0.194h0.337c0.656 0.009 0.825 0.051 1.063 0.111 0.481 0.115 0.491 0.426 0.449 1.489-0.013 0.302-0.026 0.643-0.026 1.046 0 0.088-0.004 0.181-0.004 0.28-0.015 0.541-0.032 1.155 0.35 1.407 0.050 0.031 0.107 0.048 0.166 0.048 0.133 0 0.532 0 1.614-1.856 0.334-0.598 0.624-1.218 0.868-1.858 0.022-0.038 0.086-0.155 0.162-0.2 0.056-0.029 0.118-0.043 0.181-0.042h2.597c0.283 0 0.477 0.042 0.513 0.152 0.064 0.174-0.012 0.703-1.197 2.309l-0.529 0.699c-1.075 1.409-1.075 1.48 0.067 2.549z"></path>
</svg>
