<!-- Generated by IcoMoon.io -->
<svg version="1.1" xmlns="http://www.w3.org/2000/svg" width="32" height="32" viewBox="0 0 32 32">
<title>whatsapp-circle</title>
<path fill="currentColor" d="M16 31.4c-8.505 0-15.4-6.895-15.4-15.4s6.895-15.4 15.4-15.4c8.505 0 15.4 6.895 15.4 15.4s-6.895 15.4-15.4 15.4zM19.307 17.273c-0.323-0.193-0.668-0.348-1.028-0.46l-0.001-0.001c-0.090 0-0.271 0.168-0.545 0.506s-0.462 0.506-0.568 0.506h-0.001c-0.082-0.004-0.161-0.029-0.23-0.073l-0.040-0.017c-0.561-0.272-1.082-0.62-1.546-1.035l-0.003-0.003c-0.443-0.404-0.806-0.887-1.068-1.424l0.001 0.001c-0.033-0.046-0.052-0.101-0.055-0.157 0-0.069 0.121-0.23 0.362-0.484l0.002-0.001c0.185-0.153 0.312-0.364 0.361-0.598l-0.009-0.042c-0.072-0.268-0.161-0.528-0.253-0.739-0.175-0.472-0.291-0.778-0.347-0.917l-0.001-0.005c-0.033-0.106-0.089-0.202-0.161-0.281l0.001 0.001c-0.083-0.054-0.182-0.078-0.28-0.069h-0.002c-0.070-0.001-0.139-0.007-0.198-0.016l0.009 0.001c-0.064-0.009-0.129-0.015-0.198-0.017h-0.001c-0.205 0.004-0.4 0.086-0.545 0.229l-0.002 0.002c-0.235 0.208-0.425 0.461-0.558 0.743s-0.207 0.59-0.217 0.902v0.083l0.001 0.009c0.038 0.73 0.297 1.432 0.745 2.013l0.032 0.050c0.451 0.669 0.961 1.298 1.523 1.878l0.001 0.001c0.512 0.511 1.113 0.925 1.773 1.224 0.622 0.34 1.303 0.561 2.007 0.651h0.004c0.372-0.010 0.737-0.105 1.068-0.276l0.010-0.003c0.319-0.128 0.58-0.368 0.736-0.679l-0.005 0.014c0.109-0.247 0.173-0.518 0.184-0.806l0.001-0.021c0-0.049-0.008-0.095-0.022-0.136l0.010 0.007c-0.282-0.216-0.59-0.401-0.947-0.559zM16.149 22.336h-0.032c-1.28 0.003-2.532-0.374-3.594-1.084l-2.542 0.803 0.83-2.429c0.004 0.006 0.009 0.012 0.013 0.017l-0.013-0.018v0c-0.821-1.11-1.262-2.451-1.26-3.828-0.003-0.875 0.176-1.742 0.525-2.546l0.016-0.042c0.657-1.541 1.902-2.776 3.498-3.444l-0.042 0.016c0.796-0.346 1.675-0.537 2.599-0.537s1.803 0.192 2.557 0.521l0.043 0.016c1.553 0.652 2.798 1.887 3.471 3.471l-0.016-0.042c0.348 0.79 0.541 1.662 0.541 2.579s-0.193 1.789-0.525 2.538l-0.016 0.042c-0.657 1.541-1.902 2.776-3.498 3.444l0.041-0.016c-0.814 0.355-1.694 0.538-2.584 0.537h-0.014zM16.148 7.933h-0.022c-1.050-0.004-2.088 0.209-3.051 0.625l-0.051 0.019c-1.862 0.785-3.355 2.266-4.166 4.165l0.020-0.050c-0.418 0.954-0.65 2.007-0.65 3.113-0.004 1.425 0.388 2.823 1.134 4.040l-1.429 4.221 4.378-1.396c1.124 0.624 2.42 0.98 3.8 0.98h0.058c1.103 0 2.152-0.23 3.050-0.625l0.052-0.020c1.862-0.785 3.355-2.266 4.166-4.165l-0.020 0.050c0.418-0.949 0.65-1.996 0.65-3.098s-0.232-2.15-0.63-3.048l-0.020-0.051c-0.791-1.848-2.284-3.329-4.197-4.133l0.050 0.019c-0.948-0.415-1.996-0.645-3.099-0.645h-0.022z"></path>
</svg>
