<svg width="32" height="32" viewBox="0 0 32 32" fill="none" xmlns="http://www.w3.org/2000/svg">
<circle cx="16" cy="16" r="14" fill="white"/>
<path d="M15.6137 8.6665C14.372 8.68439 11.7042 8.88629 10.2138 10.2427C9.1067 11.3416 8.7162 12.9471 8.6756 14.9386C8.635 16.9294 8.58216 20.6625 12.2114 21.6745H12.2133L12.2107 23.2181C12.2107 23.2181 12.1869 23.8423 12.6038 23.9701C13.1045 24.1247 13.399 23.6507 13.8797 23.1383C14.142 22.8571 14.506 22.4457 14.7799 22.1288C17.2608 22.3371 19.1695 21.863 19.3873 21.7934C19.8873 21.6324 22.7227 21.272 23.184 17.5402C23.6609 13.694 22.9521 11.2598 21.6762 10.1635C21.2921 9.81205 19.7391 8.69398 16.2794 8.67928C16.2794 8.67928 16.0249 8.66331 15.6112 8.66842L15.6137 8.6665ZM15.6511 9.74816C16.0023 9.74561 16.2182 9.75903 16.2182 9.75903C19.145 9.7718 20.5465 10.6458 20.872 10.9384C21.9513 11.8553 22.5023 14.0486 22.1002 17.2616V17.2629C21.711 20.3795 19.4105 20.575 18.9865 20.7098C18.8061 20.7673 17.1293 21.1807 15.0215 21.0446C15.0215 21.0446 13.4518 22.923 12.9614 23.4111C12.8841 23.4877 12.7939 23.5178 12.7346 23.5031C12.6508 23.482 12.6276 23.383 12.6283 23.2386L12.6412 20.6715C9.57259 19.8281 9.75109 16.6515 9.78653 14.9884C9.82132 13.3247 10.1364 11.9613 11.0727 11.0445C12.3357 9.91172 14.6001 9.75519 15.6543 9.74753L15.6511 9.74816ZM15.896 11.4106C15.846 11.4131 15.7989 11.4344 15.7643 11.4703C15.7297 11.5061 15.7103 11.5537 15.71 11.6033C15.7096 11.6529 15.7285 11.7007 15.7626 11.737C15.7967 11.7733 15.8435 11.7952 15.8934 11.7984C16.9399 11.8048 17.7918 12.1415 18.489 12.8155C19.1804 13.4838 19.5329 14.3923 19.5413 15.5845C19.5426 15.6912 19.6315 15.7762 19.7391 15.7762C19.7906 15.7755 19.8398 15.7548 19.876 15.7184C19.9122 15.6821 19.9324 15.633 19.9324 15.582C19.9234 14.3144 19.5342 13.2845 18.7622 12.5382C17.9954 11.7971 17.0275 11.4183 15.8966 11.4106H15.896ZM13.3442 11.8546C13.2072 11.8358 13.0678 11.8621 12.9473 11.9294L12.9408 11.9307C12.6637 12.0885 12.415 12.2897 12.2023 12.5261C12.2011 12.5287 12.1985 12.5287 12.1972 12.5312C12.0251 12.7376 11.9265 12.9388 11.9008 13.1369C11.8957 13.1664 11.8942 13.1965 11.8963 13.2263C11.8963 13.3132 11.9104 13.3988 11.9381 13.4819L11.9465 13.4883C12.0335 13.795 12.2513 14.3035 12.723 15.152C12.9937 15.6427 13.3049 16.1103 13.6548 16.5486C13.8288 16.7684 14.0157 16.9786 14.2154 17.1773L14.3005 17.2616C14.5002 17.4584 14.7129 17.645 14.9346 17.8175C15.377 18.1645 15.8482 18.4737 16.3432 18.742C17.1989 19.2103 17.7132 19.4256 18.0212 19.5125L18.0276 19.5214C18.1397 19.5578 18.2584 19.5698 18.3756 19.5566C18.5754 19.5336 18.7796 19.4352 18.9865 19.2627C18.9891 19.2627 18.9884 19.2614 18.9916 19.2595C19.2301 19.0487 19.4318 18.7995 19.5909 18.526L19.5929 18.5196C19.7378 18.2436 19.6895 17.9817 19.4769 17.8041C19.4743 17.8041 19.0271 17.4335 18.8086 17.2738C18.5766 17.1109 18.3382 16.9594 18.0914 16.8202C17.7628 16.6381 17.4264 16.7524 17.2872 16.9313L16.9992 17.2917C16.851 17.4725 16.5758 17.4488 16.5758 17.4488C14.5653 16.9403 14.0273 14.922 14.0273 14.922C14.0273 14.922 14.0034 14.6498 14.1871 14.5029L14.5499 14.2166C14.7284 14.0793 14.8437 13.7458 14.6594 13.4193C14.5194 13.1741 14.3667 12.9364 14.2019 12.7069C14.0288 12.4824 13.8505 12.2619 13.667 12.0457C13.5862 11.9453 13.4712 11.8778 13.3436 11.8559L13.3442 11.8546ZM16.2375 12.4169C16.1857 12.4153 16.1355 12.4343 16.0978 12.4695C16.06 12.5047 16.038 12.5534 16.0365 12.6047C16.0349 12.656 16.054 12.7059 16.0895 12.7433C16.1251 12.7806 16.1741 12.8025 16.2259 12.804C16.9734 12.8583 17.5256 13.1018 17.9303 13.5388C18.3363 13.9783 18.5296 14.5125 18.5141 15.1807C18.517 15.2299 18.5384 15.2762 18.5741 15.3103C18.6098 15.3445 18.6572 15.3641 18.7068 15.3651C18.7564 15.3662 18.8046 15.3486 18.8418 15.316C18.8789 15.2833 18.9023 15.238 18.9072 15.1891C18.9233 14.4383 18.692 13.7879 18.2197 13.2762C17.7428 12.7587 17.0746 12.4756 16.2543 12.4162H16.2388L16.2375 12.4169ZM16.5359 13.4583C16.4862 13.459 16.4387 13.4783 16.4029 13.5123C16.367 13.5463 16.3455 13.5925 16.3425 13.6416C16.3374 13.7483 16.4199 13.8397 16.5281 13.8461C16.8651 13.864 17.092 13.9579 17.2453 14.1157C17.4 14.2722 17.4954 14.5118 17.5134 14.8594C17.52 14.9075 17.5447 14.9515 17.5824 14.9825C17.6201 15.0136 17.6682 15.0295 17.7172 15.0271C17.7662 15.0247 17.8125 15.0041 17.8469 14.9695C17.8814 14.9349 17.9015 14.8888 17.9033 14.8402C17.8839 14.4288 17.7647 14.0876 17.5295 13.8454C17.293 13.6039 16.9541 13.4787 16.55 13.4576H16.5384L16.5359 13.4583Z" fill="#8074D6"/>
</svg>
