<svg width="32" height="32" viewBox="0 0 32 32" fill="none" xmlns="http://www.w3.org/2000/svg">
<circle cx="16" cy="16" r="14" fill="white"/>
<path d="M18.0721 16.7393C18.4051 16.8433 18.7242 16.9869 19.0223 17.1671L19.0032 17.1561C19.329 17.2997 19.6105 17.4677 19.8673 17.6651L19.858 17.6584C19.8704 17.6957 19.8778 17.7379 19.8778 17.7825L19.8771 17.802V17.8014C19.8679 18.0636 19.8094 18.3099 19.7102 18.5341L19.7152 18.5213C19.5729 18.8042 19.3358 19.0224 19.0457 19.1385L19.0371 19.1416C18.737 19.2973 18.4051 19.3832 18.0665 19.3927H18.0628C17.4166 19.3103 16.7921 19.1066 16.2226 18.7926L16.2491 18.8061C15.6442 18.5342 15.0941 18.1554 14.6257 17.6884L14.6251 17.6877C14.1142 17.1599 13.6509 16.5885 13.2407 15.9803L13.2117 15.9351C12.8046 15.407 12.5684 14.7688 12.5343 14.1048L12.5336 14.0969V14.0211C12.5427 13.7374 12.6098 13.4586 12.7309 13.2015C12.8521 12.9444 13.0246 12.7145 13.2382 12.5257L13.24 12.5239C13.3719 12.3934 13.5496 12.3188 13.7358 12.3155H13.7364C13.7986 12.3173 13.8584 12.3222 13.9162 12.3308L13.9082 12.3295C13.9618 12.3375 14.024 12.3424 14.0881 12.3436H14.0899C14.1796 12.3349 14.2695 12.3569 14.3449 12.4059L14.3437 12.4053C14.4096 12.4774 14.4601 12.5648 14.4902 12.6608L14.4915 12.6656C14.5424 12.7919 14.6475 13.0698 14.8068 13.4992C14.8899 13.6911 14.9712 13.9276 15.0365 14.1708L15.0451 14.2093C15.0007 14.422 14.885 14.6135 14.7169 14.7526L14.715 14.7538C14.4954 14.9844 14.3855 15.1311 14.3855 15.1938C14.3879 15.2453 14.4052 15.2949 14.4354 15.3368L14.4348 15.3362C14.673 15.8248 15.0023 16.2642 15.4054 16.6311L15.4085 16.6342C15.8304 17.0114 16.3035 17.3281 16.8139 17.5753L16.8502 17.5912C16.9126 17.6314 16.9847 17.6544 17.059 17.6578H17.0602C17.1559 17.6578 17.3279 17.5046 17.5763 17.1982C17.8247 16.8919 17.9897 16.7387 18.0714 16.7387L18.0721 16.7393ZM16.134 21.7602H16.1475C16.9562 21.7613 17.7562 21.595 18.4964 21.2719L18.4588 21.2866C19.9098 20.6791 21.0411 19.5565 21.6385 18.1552L21.6533 18.1167C21.955 17.4366 22.1306 16.6434 22.1306 15.8098C22.1306 14.9762 21.955 14.183 21.6385 13.465L21.6533 13.5029C21.0411 12.0631 19.9098 10.9405 18.4976 10.3477L18.4588 10.333C17.7734 10.0336 16.974 9.85943 16.134 9.85943C15.2939 9.85943 14.4945 10.0336 13.7709 10.3477L13.8091 10.333C12.3581 10.9405 11.2268 12.0631 10.6294 13.4644L10.6146 13.5029C10.2971 14.2336 10.1346 15.0214 10.1373 15.8171C10.1354 17.0753 10.541 18.3008 11.2945 19.3127L11.2828 19.2968L10.5284 21.5047L12.8391 20.7751C13.8044 21.4202 14.9424 21.7633 16.1062 21.7602H16.1352H16.134ZM16.134 8.66655H16.1543C17.1569 8.66655 18.1102 8.87554 18.9718 9.2526L18.9269 9.23488C20.6667 9.96638 22.0234 11.3126 22.7427 12.9926L22.7606 13.039C23.1227 13.8561 23.3333 14.8088 23.3333 15.8104C23.3333 16.812 23.1227 17.7647 22.7427 18.627L22.7606 18.5818C22.0234 20.3082 20.6667 21.6545 18.9737 22.3682L18.9269 22.386C18.1096 22.7453 17.1563 22.9543 16.1537 22.9543H16.1327H16.134H16.1013C14.8333 22.9543 13.6428 22.6237 12.6131 22.045L12.6482 22.0633L8.66667 23.3332L9.96552 19.496C9.28753 18.3893 8.93076 17.1184 8.93457 15.8232C8.93457 14.8174 9.14519 13.8604 9.52518 12.9932L9.50732 13.039C10.2445 11.3126 11.6012 9.96638 13.2942 9.2526L13.341 9.23488C14.2158 8.85678 15.1601 8.66324 16.1142 8.66655H16.1346H16.1333H16.134Z" fill="#00E676"/>
</svg>
