<svg width="16" height="16" viewBox="0 0 16 16" fill="none" xmlns="http://www.w3.org/2000/svg">
<path d="M14.2309 10.7939L13.5889 11.877C13.4117 12.176 13.0191 12.2783 12.7122 12.1057L9.26337 10.164V14.0413C9.26337 14.3864 8.97619 14.6663 8.62169 14.6663H7.33862C6.98412 14.6663 6.69694 14.3864 6.69694 14.0413V10.1637L3.27193 12.1064C2.96498 12.2791 2.57229 12.1767 2.39517 11.8778L1.75323 10.7947C1.57599 10.4958 1.68062 10.114 1.98762 9.94134L5.43657 7.99967L1.98778 6.05957C1.68057 5.88509 1.57612 5.50488 1.75323 5.2054L2.39517 4.12233C2.57242 3.82337 2.96498 3.72103 3.27193 3.89366L6.72072 5.83533L6.69748 1.95801C6.69748 1.61296 6.98465 1.33301 7.33915 1.33301H8.62249C8.97699 1.33301 9.26417 1.61296 9.26417 1.95801V5.83561L12.713 3.89395C13.0199 3.72131 13.4126 3.82368 13.5897 4.12259L14.2314 5.20566C14.4087 5.50462 14.304 5.88639 13.997 6.05905L10.571 7.99967L14.0198 9.94056C14.327 10.1143 14.4312 10.4945 14.2309 10.7939Z" fill="#19927F"/>
</svg>
