<svg width="32" height="32" viewBox="0 0 32 32" fill="none" xmlns="http://www.w3.org/2000/svg">
<path fill-rule="evenodd" clip-rule="evenodd" d="M30 16C30 23.7315 23.7315 30 16 30C8.2685 30 2 23.7315 2 16C2 8.2685 8.2685 2 16 2C23.7315 2 30 8.2685 30 16ZM16.5017 12.3355C15.1402 12.9013 12.4183 14.0738 8.33733 15.8518C7.67467 16.1155 7.327 16.3733 7.2955 16.6253C7.24183 17.0523 7.77617 17.2203 8.50183 17.4478C8.601 17.4793 8.70367 17.5108 8.80867 17.5458C9.52383 17.778 10.4852 18.0498 10.9845 18.0603C11.4383 18.0697 11.9447 17.883 12.5035 17.5003C16.3162 14.9255 18.2843 13.6247 18.408 13.5967C18.4955 13.5768 18.6168 13.5512 18.6985 13.6247C18.7802 13.697 18.772 13.8347 18.7638 13.872C18.7102 14.0972 16.6172 16.0443 15.5322 17.0523C15.1938 17.3662 14.9547 17.589 14.9057 17.6403C14.796 17.7535 14.684 17.862 14.5767 17.9658C13.9117 18.6052 13.4147 19.0858 14.6047 19.8698C15.1763 20.2467 15.6337 20.5582 16.0898 20.8685C16.588 21.208 17.085 21.5463 17.729 21.9687C17.8923 22.076 18.0487 22.1868 18.2015 22.2953C18.7813 22.7095 19.3028 23.0805 19.9468 23.0222C20.3202 22.9872 20.7075 22.636 20.9035 21.5872C21.3667 19.1068 22.279 13.7355 22.4902 11.5212C22.503 11.3373 22.4952 11.1526 22.4668 10.9705C22.4499 10.8234 22.3782 10.6881 22.2662 10.5913C22.0993 10.4548 21.8403 10.4257 21.7237 10.428C21.1975 10.4373 20.3902 10.7185 16.5017 12.3355Z" fill="white"/>
</svg>
