<svg width="40" height="40" viewBox="0 0 40 40" fill="none" xmlns="http://www.w3.org/2000/svg">
<path fill-rule="evenodd" clip-rule="evenodd" d="M20 39.25C30.6315 39.25 39.25 30.6315 39.25 20C39.25 9.36852 30.6315 0.75 20 0.75C9.36852 0.75 0.75 9.36852 0.75 20C0.75 30.6315 9.36852 39.25 20 39.25ZM12.0439 12.0839C14.0933 10.2189 17.7615 9.94127 19.4689 9.91667L19.4653 9.9193C20.0342 9.91227 20.3842 9.93424 20.3842 9.93424C25.1413 9.95444 27.2766 11.4918 27.8047 11.975C29.5591 13.4825 30.5337 16.8295 29.878 22.118C29.3004 26.7905 26.0161 27.6191 24.9143 27.8971C24.8061 27.9243 24.719 27.9463 24.6575 27.9661C24.358 28.0619 21.7336 28.7137 18.3224 28.4273C17.9458 28.8631 17.4452 29.4288 17.0846 29.8153C16.9749 29.9322 16.8723 30.0476 16.7743 30.1579C16.2814 30.7124 15.9045 31.1365 15.3302 30.9591C14.757 30.7834 14.7897 29.9251 14.7897 29.9251L14.7933 27.8027H14.7906C9.80047 26.4112 9.87312 21.2782 9.92894 18.5408C9.98476 15.8025 10.5217 13.5949 12.0439 12.0839ZM20.3 11.4189C20.3 11.4189 20.0032 11.4004 19.5203 11.4039L19.5247 11.4031C18.0752 11.4136 14.9616 11.6288 13.225 13.1864C11.9376 14.447 11.5043 16.3217 11.4565 18.6093C11.4549 18.6839 11.4531 18.7607 11.4512 18.8395C11.3965 21.1775 11.2999 25.3017 15.3816 26.4235L15.3639 29.9533C15.363 30.1518 15.3949 30.288 15.5101 30.317C15.5916 30.3372 15.7156 30.2959 15.822 30.1905C16.4962 29.5193 18.6546 26.9365 18.6546 26.9365C21.5528 27.1236 23.8583 26.5553 24.1064 26.4762C24.1645 26.4577 24.2482 26.4384 24.3523 26.4144C25.2935 26.1974 27.9059 25.5951 28.3877 21.7367V21.735C28.9406 17.3171 28.183 14.3012 26.6989 13.0406C26.2515 12.6382 24.3244 11.4365 20.3 11.4189ZM19.676 13.7718C19.7235 13.7226 19.7883 13.6932 19.857 13.6898C21.412 13.7003 22.7437 14.2213 23.7981 15.2403C24.8595 16.2664 25.3947 17.6825 25.4071 19.4254C25.4071 19.4957 25.3792 19.5631 25.3295 19.613C25.2797 19.663 25.2121 19.6916 25.1413 19.6925C24.9933 19.6925 24.871 19.5757 24.8693 19.429C24.8578 17.7897 24.3731 16.5405 23.4224 15.6216C22.4637 14.6948 21.2923 14.2318 19.8534 14.223C19.7848 14.2187 19.7204 14.1885 19.6735 14.1386C19.6266 14.0887 19.6007 14.0229 19.6012 13.9547C19.6016 13.8865 19.6284 13.8211 19.676 13.7718ZM15.8025 14.4031C15.9682 14.3106 16.1599 14.2745 16.3483 14.3003L16.3474 14.3021C16.5228 14.3322 16.6811 14.425 16.7922 14.563C17.0444 14.8603 17.2896 15.1635 17.5276 15.4722C17.7542 15.7877 17.9642 16.1147 18.1567 16.4518C18.4101 16.9007 18.2515 17.3592 18.006 17.5481L17.5072 17.9417C17.2547 18.1437 17.2875 18.518 17.2875 18.518C17.2875 18.518 18.0273 21.2931 20.7917 21.9924C20.7917 21.9924 21.1701 22.0249 21.3739 21.7763L21.7699 21.2808C21.9613 21.0348 22.4238 20.8776 22.8757 21.128C23.215 21.3195 23.5429 21.5277 23.8619 21.7517C24.0862 21.9157 24.4858 22.2413 24.6754 22.3958C24.7397 22.4481 24.7798 22.4808 24.7807 22.4808C25.0731 22.725 25.1395 23.0852 24.9402 23.4647L24.9375 23.4735C24.7186 23.8495 24.4413 24.1921 24.1135 24.482C24.1116 24.4831 24.1107 24.4841 24.11 24.4848C24.109 24.4858 24.1084 24.4864 24.1064 24.4864C23.822 24.7236 23.5411 24.8589 23.2664 24.8905C23.1053 24.9087 22.9421 24.8922 22.788 24.8422L22.7791 24.8299C22.3556 24.7104 21.6485 24.4144 20.4719 23.7704C19.7913 23.4016 19.1433 22.9764 18.535 22.4993C18.2302 22.2621 17.9378 22.0056 17.6631 21.735L17.5462 21.619C17.2715 21.3458 17.0146 21.0568 16.7753 20.7546C16.2942 20.152 15.8663 19.5089 15.4941 18.8342C14.8456 17.6676 14.5461 16.9683 14.4265 16.5466L14.4149 16.5378C14.3768 16.4236 14.3573 16.3059 14.3573 16.1864C14.3545 16.1454 14.3566 16.1041 14.3636 16.0635C14.399 15.7911 14.5346 15.5144 14.7711 15.2307C14.772 15.2289 14.7733 15.228 14.7747 15.2271C14.776 15.2263 14.7773 15.2254 14.7782 15.2236C15.0706 14.8986 15.4126 14.6219 15.7936 14.4049L15.8025 14.4031ZM20.1344 15.1458C20.1862 15.0973 20.2554 15.0713 20.3266 15.0734L20.3283 15.0725H20.3496C21.4775 15.1542 22.3964 15.5434 23.052 16.255C23.7015 16.9586 24.0196 17.8529 23.9974 18.8852C23.9906 18.9525 23.9585 19.0148 23.9074 19.0597C23.8564 19.1046 23.7901 19.1287 23.7218 19.1273C23.6536 19.1258 23.5884 19.0989 23.5393 19.0519C23.4902 19.0049 23.4608 18.9413 23.4569 18.8737C23.4782 17.9548 23.2124 17.2204 22.6542 16.616C22.0978 16.0151 21.3384 15.6804 20.3106 15.6058C20.2394 15.6037 20.172 15.5736 20.1231 15.5222C20.0743 15.4708 20.048 15.4023 20.0501 15.3317C20.0522 15.2611 20.0826 15.1942 20.1344 15.1458ZM20.554 16.5796C20.6033 16.5329 20.6686 16.5063 20.7368 16.5053L20.7403 16.5045H20.7563C21.3118 16.5335 21.7779 16.7056 22.1031 17.0377C22.4265 17.3707 22.5904 17.8398 22.617 18.4055C22.6145 18.4723 22.5869 18.5358 22.5395 18.5833C22.4921 18.6309 22.4285 18.6592 22.3611 18.6625C22.2938 18.6658 22.2277 18.6439 22.1758 18.6012C22.1239 18.5585 22.09 18.4981 22.0809 18.4319C22.0561 17.954 21.925 17.6245 21.7123 17.4093C21.5015 17.1923 21.1896 17.0632 20.7262 17.0386C20.5773 17.0298 20.4639 16.9042 20.471 16.7575C20.475 16.6899 20.5047 16.6264 20.554 16.5796Z" fill="white"/>
</svg>
