<svg width="32" height="32" viewBox="0 0 32 32" fill="none" xmlns="http://www.w3.org/2000/svg">
<path d="M16 2C8.26792 2 2 8.26792 2 16C2 23.7321 8.26792 30 16 30C23.7321 30 30 23.7321 30 16C30 8.26792 23.7321 2 16 2ZM21.3842 17.7952C21.3842 17.7952 22.6223 19.0173 22.9271 19.5846C22.9358 19.5963 22.9402 19.6079 22.9431 19.6138C23.0671 19.8223 23.0963 19.9842 23.035 20.1052C22.9329 20.3065 22.5829 20.4056 22.4633 20.4144H20.2758C20.1242 20.4144 19.8062 20.375 19.4212 20.1096C19.1252 19.9025 18.8335 19.5627 18.5492 19.2317C18.1248 18.7387 17.7573 18.3129 17.3869 18.3129C17.3398 18.3128 17.2931 18.3202 17.2483 18.3348C16.9683 18.4252 16.6096 18.8248 16.6096 19.8894C16.6096 20.2219 16.3471 20.4129 16.1619 20.4129H15.16C14.8188 20.4129 13.041 20.2933 11.466 18.6323C9.53813 16.5979 7.80271 12.5175 7.78813 12.4796C7.67875 12.2156 7.90479 12.0742 8.15125 12.0742H10.3606C10.6552 12.0742 10.7515 12.2535 10.8185 12.4125C10.8973 12.5977 11.186 13.3342 11.66 14.1625C12.4285 15.5129 12.8996 16.0612 13.2773 16.0612C13.3481 16.0604 13.4177 16.0424 13.48 16.0087C13.9729 15.7346 13.881 13.9773 13.8592 13.6127C13.8592 13.5442 13.8577 12.8267 13.6054 12.4825C13.4246 12.2331 13.1169 12.1383 12.9302 12.1033C13.0058 11.9991 13.1053 11.9145 13.2204 11.8569C13.5588 11.6877 14.1683 11.6629 14.7735 11.6629H15.1104C15.7667 11.6717 15.9358 11.714 16.1735 11.7738C16.6548 11.889 16.665 12.1996 16.6227 13.2627C16.6096 13.5646 16.5965 13.9058 16.5965 14.3083C16.5965 14.3958 16.5921 14.4892 16.5921 14.5883C16.5775 15.1294 16.56 15.7433 16.9421 15.9956C16.9919 16.0269 17.0495 16.0435 17.1083 16.0437C17.241 16.0437 17.6406 16.0438 18.7227 14.1873C19.0564 13.5898 19.3464 12.9688 19.5904 12.3294C19.6123 12.2915 19.6765 12.1748 19.7523 12.1296C19.8083 12.1011 19.8703 12.0865 19.9331 12.0873H22.5304C22.8133 12.0873 23.0073 12.1296 23.0438 12.239C23.1079 12.4125 23.0321 12.9419 21.8465 14.5475L21.3171 15.246C20.2423 16.6548 20.2423 16.7263 21.3842 17.7952Z" fill="white"/>
</svg>
