<svg width="40" height="40" viewBox="0 0 40 40" fill="none" xmlns="http://www.w3.org/2000/svg">
<path fill-rule="evenodd" clip-rule="evenodd" d="M20 39.25C30.6315 39.25 39.25 30.6315 39.25 20C39.25 9.36852 30.6315 0.75 20 0.75C9.36852 0.75 0.75 9.36852 0.75 20C0.75 30.6315 9.36852 39.25 20 39.25ZM24.1336 21.5916C23.7299 21.3501 23.2987 21.1571 22.8491 21.0168L22.8482 21.0159C22.7359 21.0159 22.5089 21.2265 22.1674 21.6478C21.8259 22.0691 21.5893 22.2797 21.4578 22.2797H21.4561C21.3539 22.275 21.2548 22.2434 21.169 22.1881L21.1191 22.1663C20.4173 21.8264 19.7668 21.3909 19.1866 20.8722L19.1824 20.868C18.6282 20.3635 18.1754 19.7593 17.8478 19.0875L17.8487 19.0883C17.8072 19.0307 17.7833 18.9624 17.7801 18.8917C17.7801 18.8054 17.9311 18.6038 18.2331 18.2867L18.2357 18.285C18.4669 18.0938 18.626 17.8305 18.687 17.538L18.6752 17.4851C18.5854 17.1507 18.4736 16.8255 18.3593 16.5616C18.1403 15.9712 17.9958 15.5891 17.9258 15.4155L17.9241 15.4088C17.8826 15.2768 17.8131 15.1567 17.7225 15.0575L17.7242 15.0584C17.6206 14.991 17.4969 14.9608 17.3736 14.9727H17.3711C17.283 14.971 17.1975 14.9643 17.1238 14.9533L17.1348 14.955C17.0552 14.9433 16.9731 14.9365 16.8876 14.934H16.8867C16.6307 14.9385 16.3864 15.0412 16.205 15.2205L16.2025 15.2231C15.9089 15.4826 15.6716 15.7988 15.505 16.1523C15.3385 16.5058 15.2462 16.8892 15.2338 17.2792V17.3834L15.2346 17.3943C15.2815 18.3074 15.6063 19.1848 16.1661 19.911L16.2059 19.9731C16.77 20.8095 17.407 21.595 18.1095 22.3209L18.1104 22.3217C18.7505 22.96 19.5015 23.4783 20.3272 23.8516C21.1046 24.2768 21.9558 24.5529 22.8364 24.6652H22.8415C23.307 24.6521 23.7633 24.534 24.176 24.3199L24.1879 24.3157C24.5867 24.156 24.9127 23.8561 25.1084 23.467L25.1016 23.4846C25.2379 23.1763 25.3184 22.8376 25.3311 22.4772L25.3319 22.4511C25.3319 22.3898 25.3217 22.3318 25.3048 22.2805L25.3175 22.2898C24.9655 22.0192 24.5798 21.7887 24.1336 21.5916ZM20.1859 27.9205H20.1842H20.1461C18.5458 27.9248 16.981 27.453 15.6538 26.5659L12.4766 27.5692L13.5139 24.5334C13.5192 24.5407 13.5246 24.5479 13.53 24.5552L13.5139 24.5333L13.5139 24.5334C12.4881 23.1463 11.9361 21.4698 11.9388 19.7488C11.9351 18.6546 12.1585 17.5714 12.5951 16.5667L12.6154 16.5137C13.4368 14.587 14.9924 13.0434 16.9875 12.2082L16.935 12.2283C17.93 11.7964 19.0291 11.5569 20.1842 11.5569C21.3392 11.5569 22.4384 11.7964 23.3809 12.2082L23.4342 12.2283C25.3759 13.0434 26.9315 14.587 27.7732 16.5667L27.7529 16.5146C28.1882 17.5019 28.4295 18.5926 28.4295 19.7387C28.4295 20.8848 28.1882 21.9755 27.7732 22.9107L27.7529 22.9637C26.9315 24.8904 25.3759 26.434 23.3809 27.2692L23.4325 27.2491C22.4147 27.6934 21.3147 27.922 20.2028 27.9205H20.1859ZM20.185 9.91672H20.1842H20.1833H20.1571C18.8452 9.91219 17.5467 10.1783 16.3439 10.6982L16.2796 10.7225C13.9517 11.704 12.0862 13.5551 11.0726 15.9289L11.0971 15.8659C10.5746 17.0582 10.285 18.3741 10.285 19.7572C10.2798 21.538 10.7703 23.2856 11.7026 24.8072L9.91667 30.0833L15.3893 28.3379C16.7945 29.1176 18.4147 29.5624 20.1393 29.5624H20.1825H20.1842H20.2113C21.5899 29.5624 22.9007 29.275 24.0244 28.7809L24.0888 28.7565C26.4167 27.7751 28.2822 25.924 29.2958 23.5502L29.2712 23.6124C29.7937 22.4267 30.0833 21.1168 30.0833 19.7395C30.0833 18.3623 29.7937 17.0523 29.2958 15.9289L29.2712 15.865C28.2822 13.5551 26.4167 11.704 24.0244 10.6982L24.0863 10.7225C22.9016 10.2041 21.5907 9.91672 20.2121 9.91672H20.185Z" fill="white"/>
</svg>
