<svg width="1920" height="549" viewBox="0 0 1920 549" fill="none" xmlns="http://www.w3.org/2000/svg">
<path fill-rule="evenodd" clip-rule="evenodd" d="M1920 549L1880 462.6C1840 376.2 1760 247.6 1680 238C1600 228.4 1568 297 1485.5 285.5C1389.85 272.167 1373 166.5 1226 166.5C1111.5 166.5 1046 259 950.5 244.5C857.5 230.38 818.5 205.4 738.5 119C658.5 32.6 560 30.6 480 40.2C400 49.8 320 69 240 59.4C160 49.8 80 11.4 40 -7.8L0 -27H40C80 -27 160 -27 240 -27C320 -27 400 -27 480 -27C560 -27 640 -27 720 -27C800 -27 880 -27 960 -27C1040 -27 1120 -27 1200 -27C1280 -27 1360 -27 1440 -27C1520 -27 1600 -27 1680 -27C1760 -27 1840 -27 1880 -27H1920V549Z" fill="#FEF1EB"/>
</svg>
