<svg width="145" height="131" viewBox="0 0 145 131" fill="none" xmlns="http://www.w3.org/2000/svg">
<path d="M36.3932 105.113C36.3932 105.113 28.0667 54.4294 83.4561 54.4294C119.658 54.4294 145 83.3912 145 83.3912C145 83.3912 117.848 126.834 76.2157 126.834C43.6336 126.834 36.3932 105.113 36.3932 105.113ZM50.8741 43.5687C50.8741 21.4853 29.1527 0.125977 29.1527 0.125977C29.1527 0.125977 2.72507 15.693 0.190916 47.1889C-2.34324 78.6849 21.1882 85.9254 21.1882 85.9254C21.1882 85.9254 50.8741 75.4267 50.8741 43.5687Z" fill="#8BC34A"/>
<path d="M145 83.3912C145 83.3912 117.848 126.834 76.2157 126.834C54.4943 126.834 43.9957 117.059 39.2894 110.543C28.7907 119.593 25.1705 127.92 25.1705 128.282C24.8085 129.73 23.3604 130.454 21.9123 130.454C21.5503 130.454 20.8262 130.454 20.4642 130.092C18.6541 129.368 17.93 127.196 18.6541 125.386C19.0161 124.3 28.0667 104.389 55.5804 91.3557C95.4029 70.3584 145 83.3912 145 83.3912ZM25.5325 105.113C25.8945 105.113 26.2565 105.113 26.6186 104.751C28.4287 104.026 29.5148 101.854 28.7907 100.044C26.9806 94.6139 25.5325 89.5456 24.8085 84.1152C32.773 80.495 50.8741 68.5483 50.8741 43.5687C50.8741 21.4853 29.1527 0.125977 29.1527 0.125977C29.1527 0.125977 27.7046 4.10823 25.5325 10.9867C24.8085 12.7968 6.70733 60.2217 22.2743 102.578C22.6363 104.026 24.0844 105.113 25.5325 105.113Z" fill="#689F38"/>
</svg>
