<svg width="129" height="133" viewBox="0 0 129 133" fill="none" xmlns="http://www.w3.org/2000/svg">
<path d="M64.28 30.3754C72.6332 30.3754 79.4048 23.6038 79.4048 15.2507C79.4048 6.89754 72.6332 0.125977 64.28 0.125977C55.9269 0.125977 49.1553 6.89754 49.1553 15.2507C49.1553 23.6038 55.9269 30.3754 64.28 30.3754Z" fill="#F44336"/>
<path d="M128.56 75.7494C128.56 59.0404 99.7815 45.5 64.28 45.5C28.7785 45.5 0 59.0404 0 75.7494C0 79.7612 1.89437 81.614 5.23693 82.132C6.85906 89.1121 31.9661 94.6553 64.28 94.6553C96.3595 94.6553 121.236 89.1915 123.172 82.2871C126.658 82.1207 128.56 80.3511 128.56 75.7494Z" fill="#795548"/>
<path d="M105.873 132.467H22.687L3.78116 79.5308L11.3435 87.0931L18.9059 79.5308L26.4682 87.0931L34.0306 79.5308L41.5929 87.0931L49.1553 79.5308L56.7176 87.0931L64.28 79.5308L71.8423 87.0931L79.4047 79.5308L86.9671 87.0931L94.5294 79.5308L102.092 87.0931L109.654 79.5308L117.216 87.0931L124.779 79.5308L105.873 132.467Z" fill="#FF80AB"/>
<path d="M128.56 75.7496C128.56 74.3468 128.288 72.9742 127.891 71.6168L124.62 68.9775L117.216 76.4L115.001 74.1842L109.654 68.8376L104.308 74.1842L102.092 76.4L99.876 74.1842L94.5294 68.8376L89.1828 74.1842L86.9671 76.4L84.7513 74.1842L79.4047 68.8376L74.0581 74.1842L71.8424 76.4L69.6266 74.1842L64.28 68.8376L58.9334 74.1842L56.7177 76.4L54.5019 74.1842L49.1553 68.8376L43.8087 74.1842L41.5929 76.4L39.3772 74.1842L34.0306 68.8376L28.684 74.1842L26.4682 76.4L24.2525 74.1842L18.9059 68.8376L13.5593 74.1842L11.3435 76.4L3.78118 69.2914L0.313838 72.8192C0.117217 73.7796 0 74.759 0 75.7496C0 79.4438 1.66372 81.2475 4.52985 81.9281L3.78118 79.5308L11.3435 87.0932L18.9059 79.5308L26.4682 87.0932L34.0306 79.5308L41.5929 87.0932L49.1553 79.5308L56.7177 87.0932L64.28 79.5308L71.8424 87.0932L79.4047 79.5308L86.9671 87.0932L94.5294 79.5308L102.092 87.0932L109.654 79.5308L117.216 87.0932L124.779 79.5308L123.943 82.1965C126.927 81.8071 128.56 79.9883 128.56 75.7496Z" fill="#5D4037"/>
<path d="M49.1553 79.5308L41.593 87.0931L49.6317 132.467H54.5132L49.1553 79.5308Z" fill="#F8BBD0"/>
<path d="M34.0306 79.5308L26.4682 87.0931L37.8117 132.467H43.4873L34.0306 79.5308Z" fill="#F8BBD0"/>
<path d="M18.9059 79.5308L11.3435 87.0931L26.4682 132.467H31.9812L18.9059 79.5308Z" fill="#F8BBD0"/>
<path d="M79.3594 79.5308L71.8424 87.0931L69.5208 132.467H74.0468L79.3594 79.5308Z" fill="#F8BBD0"/>
<path d="M94.4841 79.5308L86.9671 87.0931L80.0362 132.467H84.9177L94.4841 79.5308Z" fill="#F8BBD0"/>
<path d="M109.654 79.5308L102.092 87.0931L91.0621 132.467L96.42 132.626L109.654 79.5308Z" fill="#F8BBD0"/>
<path d="M64.28 79.5308L56.7177 87.0931L59.5573 132.467H64.28V79.5308Z" fill="#F8BBD0"/>
<path d="M117.216 87.0931L124.779 79.5308L105.873 132.467H101.305L117.216 87.0931Z" fill="#F8BBD0"/>
<path d="M105.544 44.3356C105.544 61.4265 87.073 50.8506 64.28 50.8506C41.4871 50.8506 23.0161 61.4265 23.0161 44.3356C23.0161 27.2409 41.4871 19.032 64.28 19.032C87.073 19.032 105.544 27.2409 105.544 44.3356Z" fill="#FFE0B2"/>
</svg>
