<svg width="139" height="124" viewBox="0 0 139 124" fill="none" xmlns="http://www.w3.org/2000/svg">
<path d="M7.28127 79.6826C3.47944 79.1394 3.87983e-05 82.1681 0 86.0084V95.563C8.20668e-05 100.771 3.85553 105.221 9.01099 105.958L128.658 123.041C133.708 123.763 138.311 119.79 138.311 114.688V105.118C138.311 101.281 135.455 97.9991 131.656 97.4575L7.28127 79.6826Z" fill="#FFCCBC"/>
<path d="M5.87628 79.6381V79.6426C2.66338 79.9108 0.000918707 82.6502 0.00088501 86.0105V88.6082C34.3936 92.6989 71.0638 97.7567 106.49 102.79C113.353 103.765 118.917 110.181 118.917 117.114V121.651L128.658 123.041C133.709 123.763 138.313 119.775 138.312 114.673C138.312 111.488 138.312 108.303 138.312 105.119C138.312 101.282 135.456 97.9979 131.657 97.4562L118.917 95.6343L7.27975 79.6818C6.80453 79.6143 6.33527 79.6045 5.87628 79.6382V79.6381Z" fill="#E6AF99"/>
<path d="M7.28127 58.1682C3.47944 57.625 3.87983e-05 60.6537 0 64.494V74.0486C8.20668e-05 79.2565 3.85553 83.7066 9.01099 84.4434L128.658 101.526C133.708 102.248 138.311 98.2763 138.311 93.1743V83.6032C138.311 79.7667 135.455 76.4847 131.656 75.9431L7.28127 58.1682Z" fill="#FFA185"/>
<path d="M5.87628 58.124V58.1284C2.66338 58.3966 0.000918707 61.1361 0.00088501 64.4963V66.1613C32.8608 70.9082 71.9746 76.2608 108.384 81.4874C114.202 82.3225 118.917 87.7721 118.917 93.6497V100.137L128.658 101.527C133.709 102.249 138.313 98.2779 138.312 93.176C138.312 89.9855 138.312 86.795 138.312 83.6045C138.312 79.7679 135.456 76.4837 131.657 75.942L118.917 74.1201L7.27975 58.1677C6.80453 58.1002 6.33527 58.0903 5.87628 58.1241V58.124Z" fill="#E59079"/>
<path d="M7.28127 36.6704C3.47943 36.1273 -3.07854e-05 39.1393 2.04287e-10 42.9798V52.5344C8.22357e-05 57.7424 3.85553 62.1924 9.01099 62.9292C48.8911 68.6255 88.7776 74.3317 128.658 80.0286C133.708 80.7506 138.311 76.762 138.311 71.6601V62.089C138.311 58.2524 135.453 54.9727 131.656 54.4288C90.1985 48.5064 48.7388 42.5925 7.28127 36.6704Z" fill="#FFCCBC"/>
<path d="M39.5528 1.64787C39.1673 2.81688 39.8011 4.07727 40.9695 4.46484C43.9192 5.44803 45.0898 7.10626 45.8292 9.32451C46.5686 11.5428 46.6034 14.2983 46.6034 16.6881C46.6076 17.9211 47.6109 18.917 48.8438 18.9121C50.0703 18.9078 51.0635 17.9147 51.0677 16.6881C51.0677 14.2983 51.1159 11.0835 50.0628 7.92426C49.0098 4.76515 46.5898 1.63776 42.3697 0.231155C40.952 -0.143333 39.9758 0.517915 39.5528 1.64787Z" fill="#349951"/>
<path d="M5.87628 36.6274C2.66336 36.8923 0.00085957 39.6175 0.00088501 42.9779V45.5974C35.9718 49.9739 74.9747 55.2626 106.163 59.7157C113.207 60.7214 118.917 67.3047 118.917 74.4198V78.64C122.164 79.104 125.411 79.5666 128.658 80.0304C133.709 80.7524 138.313 76.7638 138.312 73.8903L138.312 62.0904C138.312 58.2538 135.454 54.9718 131.657 54.428C129.834 54.1675 128.01 53.9082 126.187 53.6478C84.1973 47.5959 41.9181 41.6019 5.87628 36.6274Z" fill="#E6AF99"/>
<path d="M35.0222 18.1333C28.6136 19.8414 16.4203 25.6705 4.82673 33.6243C4.11048 34.116 3.51728 34.6465 3.06407 35.3705C1.69255 38.1211 2.90405 40.3156 6.60587 41.0703L16.737 42.52V52.5357C16.737 57.7016 20.9776 61.9423 26.1434 61.9423C28.418 61.9423 30.3433 60.8644 31.975 59.5042C33.0661 63.4875 36.1609 66.7196 40.4753 66.7196C45.6411 66.7196 49.8817 62.4792 49.8817 57.3133V47.2642L90.8182 53.096V63.2931C90.8182 68.4589 95.0587 72.6995 100.225 72.6995C105.39 72.6995 109.631 68.4589 109.631 63.2931V55.7974L131.079 58.8615C132.691 59.0918 134.223 58.0638 134.769 56.7696C135.315 55.4753 134.972 53.6611 133.682 52.6677L84.6242 14.8447C84.3299 14.6212 83.9846 14.4734 83.6193 14.4161C74.4117 12.8952 65.562 12.6695 61.1318 13.1307L35.0222 18.1333Z" fill="#DF2A72"/>
<path d="M66.7267 13.043C42.6983 12.0218 21.2038 22.639 4.82586 33.6217C2.62105 34.9864 2.23095 37.2231 2.62478 38.2467C17.804 27.846 34.5848 25.3631 52.2066 22.056C56.6377 21.5946 65.4866 21.8206 74.6943 23.3417C75.0586 23.4007 75.403 23.5458 75.6968 23.7684L118.969 57.1291L131.077 58.8596C132.689 59.0899 134.223 58.0617 134.769 56.7675C135.315 55.4731 134.973 53.6595 133.684 52.6661L84.6232 14.8428C84.3294 14.6201 83.985 14.4734 83.6207 14.416C77.8659 13.4654 72.2476 13.0215 66.7267 13.043Z" fill="#C42566"/>
<path d="M19.0268 73.8994L11.8115 73.9162C11.5183 73.9172 11.2282 73.976 10.9578 74.0892C10.6873 74.2023 10.4418 74.3676 10.2353 74.5756C10.0288 74.7837 9.86529 75.0305 9.75414 75.3018C9.64299 75.573 9.58638 75.8637 9.58754 76.1568C9.58855 76.45 9.64731 76.7399 9.76046 77.0104C9.87361 77.2808 10.0389 77.5264 10.247 77.7329C10.455 77.9394 10.7018 78.1028 10.973 78.214C11.2443 78.3251 11.5348 78.3816 11.8279 78.3805L19.0268 78.3638C20.2043 78.3615 21.3671 78.6277 22.4204 79.154L27.8401 81.8721C29.655 82.779 31.7365 83.0069 33.7047 82.5148L38.762 81.2464C39.6993 81.0119 40.6811 81.1121 41.5461 81.5431L46.9988 84.2613C48.8156 85.1653 50.9123 85.3848 52.8798 84.8872L57.8383 83.6353C58.7755 83.3983 59.7556 83.5036 60.6223 83.9313L66.1409 86.6659C67.9584 87.5635 70.0399 87.7706 72.0055 87.2756L76.9805 86.0237C77.9166 85.7875 78.9163 85.8914 79.781 86.3207L85.2501 89.0386C87.0681 89.9412 89.1476 90.1649 91.1147 89.6643L96.0073 88.4288C96.9407 88.1918 97.9289 88.2963 98.7913 88.7248L104.261 91.4267C106.075 92.3285 108.158 92.5576 110.125 92.0694L115.232 90.801C116.193 90.5623 117.217 90.6627 118.115 91.081L125.544 94.5404C126.08 94.791 126.692 94.8189 127.248 94.6182C127.804 94.4174 128.258 94.0042 128.509 93.4694C128.633 93.2034 128.703 92.9156 128.715 92.6226C128.727 92.3295 128.682 92.037 128.581 91.7616C128.48 91.4862 128.325 91.2334 128.127 91.0177C127.928 90.802 127.688 90.6273 127.422 90.5042L119.993 87.0283C118.17 86.1785 116.113 85.9835 114.161 86.4684L109.038 87.7369C108.098 87.9705 107.121 87.8709 106.254 87.4399L100.785 84.7217C98.9668 83.8184 96.8874 83.5955 94.9201 84.096L90.011 85.3477C89.0774 85.5856 88.0898 85.4794 87.227 85.051L81.7578 82.3328C79.941 81.4308 77.8601 81.2111 75.8932 81.7068L70.9182 82.9591C69.9802 83.1952 68.985 83.0905 68.1177 82.662L62.5991 79.9287C60.7813 79.0309 58.7003 78.806 56.7346 79.3027L51.7761 80.5712C50.8416 80.8074 49.855 80.6875 48.9921 80.2582L43.5393 77.5566C41.7239 76.6531 39.642 76.4221 37.6748 76.9138L32.6174 78.1823C31.6816 78.4168 30.6963 78.3003 29.8334 77.8693L24.4301 75.1676C22.7548 74.3301 20.8997 73.8956 19.0268 73.8992V73.8994Z" fill="#FFEFEB"/>
<path d="M73.1252 22.8671L70.7367 27.6441C70.1835 28.75 70.6351 30.0948 71.7435 30.6428C72.8494 31.196 74.1942 30.7444 74.7422 29.636L77.1307 24.859C77.6839 23.7531 77.2323 22.4083 76.1239 21.8602C74.748 21.2511 73.6315 21.7502 73.1252 22.8671ZM83.6861 26.6373C82.5842 27.1917 82.1411 28.5348 82.6967 29.636L85.0852 34.413C85.6332 35.5215 86.978 35.973 88.0839 35.4199C89.1858 34.8655 89.6289 33.5224 89.0733 32.4212L86.6848 27.6441C85.6483 26.3758 84.9855 26.4427 83.6861 26.6373ZM54.8234 33.4193C53.4961 33.4128 52.4177 34.4892 52.4218 35.8165C52.4249 37.1387 53.5012 38.2071 54.8234 38.2007C56.1371 38.1951 57.2 37.1302 57.2032 35.8165C57.2072 34.4977 56.1422 33.4249 54.8234 33.4193ZM26.523 36.0127C25.981 37.113 26.4287 38.4446 27.5255 38.9939L32.3025 41.3825C33.4037 41.938 34.7468 41.4949 35.3012 40.393C35.8549 39.2883 35.4055 37.9439 34.2987 37.3943L29.5217 35.0058C28.1335 34.446 27.0258 35.0034 26.523 36.0127ZM69.5511 37.1982C68.9955 38.2994 69.4387 39.6425 70.5405 40.1969L75.335 42.5854C76.4365 43.1268 77.7685 42.6769 78.3163 41.5786C78.8601 40.4817 78.4187 39.1514 77.3269 38.5973L72.5498 36.2088C71.1683 35.6121 70.1206 36.2215 69.5511 37.1982ZM90.6729 38.1963C89.3473 38.1923 88.2716 39.2679 88.2757 40.5935C88.2788 41.9141 89.3524 42.9817 90.6729 42.9777C91.9866 42.9721 93.0495 41.9073 93.0527 40.5935C93.0567 39.2747 91.9917 38.2019 90.6729 38.1963ZM102.624 40.5761C101.295 40.5696 100.216 41.6486 100.223 42.9777C100.228 44.2982 101.304 45.364 102.624 45.3575C103.936 45.3519 104.998 44.2897 105.004 42.9777C105.01 41.6572 103.945 40.5817 102.624 40.5761Z" fill="#FFEFEB"/>
<path d="M50.1782 10.2966C44.2946 10.2966 39.3386 14.8381 39.3387 20.5761C39.3386 26.3142 44.2947 30.872 50.1782 30.872C56.0617 30.872 61.0177 26.3142 61.0177 20.5761C61.0177 14.8381 56.0617 10.2966 50.1782 10.2966Z" fill="#A60F0C"/>
<path d="M50.1771 10.2969C45.9483 10.2969 42.2321 12.661 40.4575 16.1112C42.0302 15.2745 43.8108 14.76 45.7139 14.76C51.5975 14.76 56.5538 19.2997 56.5538 25.0378C56.5538 26.6569 56.1236 28.1631 55.4249 29.5183C58.7184 27.7637 61.017 24.4596 61.017 20.5745C61.017 14.8365 56.0607 10.2969 50.1771 10.2969Z" fill="#940F0C"/>
<path d="M73.1252 22.8672L73.0119 23.0938C73.573 23.1773 74.1306 23.2491 74.6943 23.3423C75.0586 23.4012 75.403 23.5467 75.6968 23.7694L77.1264 24.8721L77.1309 24.859C77.684 23.7531 77.2325 22.4082 76.124 21.8602C74.7482 21.2141 73.6686 21.7379 73.1253 22.8671L73.1252 22.8672ZM83.6861 26.6374C82.8101 27.0774 82.3238 28.0375 82.4875 29.0041L89.1823 34.169C89.3856 33.5959 89.3463 32.9646 89.0733 32.4212L86.6848 27.6442C85.9253 26.3556 84.8529 26.1656 83.6861 26.6374ZM102.624 40.5762C101.406 40.5688 100.376 41.4795 100.236 42.6901L103.483 45.1919C104.396 44.8356 104.999 43.9579 105.004 42.9778C105.01 41.6572 103.945 40.5818 102.624 40.5762Z" fill="#E5D8D4"/>
<path d="M16.5897 93.6682C16.2967 93.6671 16.0063 93.7237 15.7351 93.8348C15.4639 93.9458 15.2172 94.1093 15.0092 94.3157C14.8012 94.5221 14.6358 94.7675 14.5226 95.0378C14.4094 95.3081 14.3506 95.5981 14.3494 95.8911L14.3233 106.7L18.7821 107.337L18.8126 95.9086C18.8138 95.6155 18.7572 95.3251 18.6461 95.0539C18.535 94.7827 18.3716 94.536 18.1652 94.328C17.9588 94.12 17.7134 93.9546 17.4431 93.8414C17.1728 93.7282 16.8828 93.6694 16.5897 93.6682ZM30.9208 95.7124C30.6278 95.7113 30.3374 95.7679 30.0662 95.8789C29.795 95.99 29.5483 96.1535 29.3403 96.3599C29.1323 96.5663 28.9669 96.8117 28.8537 97.082C28.7405 97.3523 28.6817 97.6422 28.6805 97.9353L28.6673 108.749L33.1175 109.385L33.1436 97.9527C33.1448 97.6597 33.0882 97.3693 32.9771 97.0981C32.866 96.8269 32.7026 96.5802 32.4962 96.3722C32.2898 96.1642 32.0444 95.9988 31.7741 95.8856C31.5038 95.7724 31.2138 95.7136 30.9207 95.7124H30.9208ZM45.2694 97.7697C44.6805 97.772 44.1164 98.0069 43.7001 98.4233C43.2837 98.8397 43.0488 99.4037 43.0465 99.9926L43.0203 110.802L47.4792 111.438L47.4923 99.9926C47.49 99.4037 47.2551 98.8397 46.8387 98.4233C46.4224 98.0069 45.8583 97.772 45.2694 97.7697H45.2694ZM59.6179 99.8139C59.3248 99.8127 59.0344 99.8693 58.7632 99.9804C58.492 100.091 58.2454 100.255 58.0373 100.461C57.8293 100.668 57.664 100.913 57.5508 101.183C57.4376 101.454 57.3787 101.744 57.3776 102.037L57.3514 112.85L61.8146 113.487L61.8408 102.054C61.8419 101.761 61.7853 101.471 61.6742 101.2C61.5631 100.928 61.3997 100.682 61.1933 100.474C60.9869 100.266 60.7415 100.1 60.4712 99.9871C60.2009 99.8739 59.9109 99.815 59.6179 99.8139ZM73.949 101.854C73.6541 101.853 73.3619 101.91 73.0893 102.022C72.8166 102.135 72.569 102.3 72.3607 102.509C72.1524 102.718 71.9875 102.965 71.8756 103.238C71.7636 103.511 71.7069 103.803 71.7086 104.098L71.6955 114.899L76.1587 115.54L76.1719 104.098C76.1736 103.805 76.1174 103.514 76.0066 103.242C75.8957 102.971 75.7324 102.724 75.526 102.515C75.3195 102.307 75.0739 102.141 74.8033 102.027C74.5327 101.914 74.2424 101.855 73.949 101.854ZM88.2801 103.915C87.987 103.914 87.6966 103.971 87.4254 104.082C87.1542 104.193 86.9076 104.356 86.6995 104.563C86.4915 104.769 86.3261 105.015 86.2129 105.285C86.0997 105.555 86.0409 105.845 86.0397 106.138L86.0136 116.948L90.4768 117.584L90.5073 106.138C90.505 105.549 90.2695 104.984 89.8521 104.567C89.4348 104.151 88.8696 103.916 88.2801 103.915H88.2801ZM102.629 105.959C102.336 105.958 102.045 106.015 101.774 106.126C101.503 106.237 101.256 106.401 101.048 106.607C100.84 106.813 100.675 107.059 100.561 107.329C100.448 107.599 100.389 107.889 100.388 108.182L100.375 119L104.838 119.637L104.851 108.2C104.853 107.907 104.796 107.616 104.685 107.345C104.574 107.074 104.41 106.827 104.204 106.619C103.998 106.411 103.752 106.246 103.482 106.133C103.212 106.019 102.922 105.961 102.629 105.959ZM116.977 107.999C116.683 107.998 116.391 108.055 116.118 108.168C115.846 108.28 115.599 108.445 115.39 108.653C115.182 108.861 115.017 109.109 114.905 109.381C114.793 109.653 114.736 109.945 114.737 110.24L114.711 121.049L119.174 121.685L119.2 110.24C119.201 109.947 119.145 109.656 119.033 109.385C118.922 109.114 118.759 108.867 118.553 108.659C118.346 108.451 118.101 108.286 117.83 108.173C117.56 108.059 117.27 108 116.977 107.999Z" fill="#E6AF99"/>
<path d="M116.241 86.2413C117.407 87.7423 118.269 89.475 118.66 91.3322L125.546 94.5401C126.081 94.7902 126.694 94.8177 127.25 94.6167C127.805 94.4157 128.259 94.0026 128.51 93.4679C128.633 93.2018 128.703 92.914 128.715 92.6209C128.727 92.3279 128.681 92.0354 128.579 91.7601C128.478 91.4849 128.324 91.2323 128.125 91.0167C127.926 90.8012 127.687 90.627 127.42 90.5041L119.993 87.0303C118.811 86.4789 117.528 86.2346 116.241 86.2413Z" fill="#EBDDD9"/>
<path d="M116.977 108C116.541 107.998 116.114 108.123 115.748 108.362C117.696 110.856 118.917 113.917 118.917 117.114V121.651L119.174 121.686L119.2 110.24C119.201 109.947 119.145 109.657 119.033 109.385C118.922 109.114 118.759 108.868 118.553 108.66C118.346 108.452 118.101 108.286 117.83 108.173C117.56 108.06 117.27 108.001 116.977 108V108Z" fill="#CC9B86"/>
</svg>
