<svg width="1918" height="280" viewBox="0 0 1918 280" fill="none" xmlns="http://www.w3.org/2000/svg">
<path opacity="0.5" d="M1 279.447C112.525 280.281 164.5 207.126 179.5 169.844C200.411 117.87 194.601 47.126 139.5 47.126C74.5089 47.126 104 213.1 325.5 249.626C416.5 264.632 515.981 224.626 625.5 136.126C724.5 56.126 811.05 12.9518 898.5 3.12603C1121 -21.8739 1273.5 169.919 1207 234.126C1173.86 266.126 1087.9 205.203 1207 114.626C1326 24.126 1436.7 53.3385 1519.5 124.626C1595 189.626 1674 208.626 1731.5 199.626C1781.39 191.817 1854.5 154.126 1917 60.626" stroke="#EC7272"/>
</svg>
